<mxfile host="Electron" agent="Mozilla/5.0 (Macintosh; Intel Mac OS X 10_15_7) AppleWebKit/537.36 (KHTML, like Gecko) draw.io/24.7.5 Chrome/126.0.6478.183 Electron/31.3.0 Safari/537.36" version="24.7.5" pages="2">
  <diagram id="A1AJw5YSSGD-KpoyQl47" name="本地调用与远程调用">
    <mxGraphModel dx="728" dy="804" grid="1" gridSize="10" guides="1" tooltips="1" connect="1" arrows="1" fold="1" page="1" pageScale="1" pageWidth="850" pageHeight="1100" math="0" shadow="0">
      <root>
        <mxCell id="0" />
        <mxCell id="1" parent="0" />
        <mxCell id="X91n1EuSpCg4O8vg80DY-3" value="" style="shape=image;imageAspect=0;aspect=fixed;verticalLabelPosition=bottom;verticalAlign=top;image=data:image/jpeg,/9j/4AAQSkZJRgABAQAAAQABAAD/2wBDAAYEBQYFBAYGBQYHBwYIChAKCgkJChQODwwQFxQYGBcUFhYaHSUfGhsjHBYWICwgIyYnKSopGR8tMC0oMCUoKSj/2wBDAQcHBwoIChMKChMoGhYaKCgoKCgoKCgoKCgoKCgoKCgoKCgoKCgoKCgoKCgoKCgoKCgoKCgoKCgoKCgoKCgoKCj/wAARCAE9AfMDASIAAhEBAxEB/8QAHAABAAICAwEAAAAAAAAAAAAAAAYHBAUCAwgB/8QAXxAAAQIFAAMHDA0LAgQEBAcBAQIDAAQFBhEHEiETFzFBlNHSFBUWIjdRVFVWYXWTCDI1NlJXcXSVsbKztBgjM0JTcnOBg5GjOKEkNHbTJWKiw0NFksEnREZjZGWC4f/EABsBAQADAQEBAQAAAAAAAAAAAAABAgMEBQYH/8QANxEAAgECBAQEAwcDBQEAAAAAAAECAxESFDFRBBUhUgUTMkEzYpEGFiJCYXGBNLHwI6HB0eHx/9oADAMBAAIRAxEAPwD0QqzbVSkqNt0QAbSTItDH/pirJ6cp90Tj0no1tC2nJFlZafuCfkG+pUqGxSWUBOs8R3x2uzjESHSvOTFw1+nWBT33JdidZM9Wn2jhSJJKtUNpPEXVdr8gPEYkUnKy8jJsSciw3LScugNssNjCW0jgAEXhTxdSs6rj0TKxOhqSnCHKzX5x6YPthISMrJNZ8yUoJx/OG8fbvjWu+ta/7cWnCN/LivYx82e5VKtBdtKcQ4qpVsuI2pUXGsp+Q7nsjI3l6H47uH17fQizoROCOxDnJ+5VzmhKgOpCXKxX1pBCgFPNHaOA+0js3mqL49uLlDfQizYQwR2IxPcrLeaovj24uUN9CG81RfHtxcob6EWbCGCOwxvcrLeaovj24uUN9CG81RfHtxcob6EWbCGCOwxvcrLeaovj24uUN9CG81RfHtxcob6EWbCGCOwxvcrLeaovj24uUN9COL2hWhPNqberNwONq2FK3myD8o1Is+EMEdhje5WG8tQ/HVw+vb6EcHNCFvOLStyrV5S0jAUp1okDve0i0oQwR2Jxte5Vm8fbvjWu+ta/7cN4+3fGtd9a1/24tOEPLjsT5s9yrN4+3fGtd9a1/wBuG8fbvjWu+ta/7cWnCHlx2Hmz3Ks3j7d8a131rX/bj4vQZba0FK6nXFJPCC40Qf8AHFqQh5cdh5s9yqjoPoSVFyWrNXbeIwVOol30kd4pU3gjzR96yzVmo3WvWpbl4W+hIS9MydHZYnpdsbdZTIGq4kYHtcHji1I+pJSQUkgjgIirpRehKqyXudFBoVh3DSpar0ah29OScy3+bfbkGjlPGD2uRg7CDtB4Y2AsW0gMC1qCBq6nuez7Xve14PNFey5Gj3SHJTMkA1bF0TPUs3LJ2IlagR+bdQOIOY1SNgzg8QEXJHPKNnY3Um1cjwse0wUkWvQgUDVTintbB3h2sfE2NaSSjVtehDU9pins9r8na7IkUIgm7I52C2iAkdi1Bwk6wHW5nYe/7WOQse0wFgWxQgF51v8Aw9rtvl7WJDCFhdkfTZVqpSAm2aIABgASDWz/ANMfewu1vJqicga6Mb+ERZDE9zQdhdreTVE5A10YdhdreTVE5A10Y38dU3MNykq9MPHVaZQpxZ7wAyYWQxPcqq/XrdpFSl7ftmzKFV7pmkbqiXVKNIZlWs4Lz69XtUDiHCeARG1aIkVQ7tcVaSl87SxRadLybCPMDqFagO+TmN1oil3Jm3X7pqCQavczyqhMOHaUtZIYaB+ChAGB54nEdEKStdmMqsr2TKqRoMttt8vIqdbS8RjdA40FY+Xc4795eh+O7h9e30Is6Ea4I7GeN7lY7y9D8d3D69voQ3l6H47uH17fQizoQwR2IxMq9rQpQWtbcqzcCNdRUrVeaGT3z2nDHPeaovj24uUN9CLNhEYI7DG9yst5qi+Pbi5Q30IbzVF8e3FyhvoRZsIYI7DG9yst5qi+Pbi5Q30IbzVF8e3FyhvoRZsIYI7DG9yst5qi+Pbi5Q30IbzVF8e3FyhvoRZsIYI7DG9yst5qi+Pbi5Q30IbzVF8e3FyhvoRZsIYI7DG9yst5qi+Pbi5Q30IbzVF8e3FyhvoRZsIYI7DG9yst5mi+PLi5Q30I4uaFaE6gocrVwLSeEKfbIP8A6Is+EMEdhje5VW8XbXjKt+sa/wC3DeLtrxlW/WNf9uLVhDy47E+ZLcqreLtrxlW/WNf9uG8XbXjKt+sa/wC3Fqwh5cdh5ktyqToMt5J1mKtWW3BwKUGHB/NKm8GOaZBFhLS7eFv29cNrawS5V5ekMtTUlk4Cn2kpwpHBlSdo25HAItOPi0IdbW282l1lxJQ42sZStJGCkjjBGz+cVlSi9ESqkkd0vZtnTMu0/L25b7rLqQttxEiypK0kZBBCdoI44R5YuPSPeei6uz1m0F1LtIpbqkyanWt0UGV/nEJKjtOqFhP8oRz4DfGXjav/ABmkrSPUXNrqJuVp6P8AyttsBWP5qUTExiHWP78NJPptv8OiJjHTT9Jzz1Ea6465Trboz9WrUx1NT2CkOOhCl6pUQkbEgk7SI2MV57IHuS1f+PKfiERcqj5v1WB46mPo+Y6EN+qwPHUx9HzHQjUPOL3VfbHhMcd0V8Ix6GR+Y4s7+hud+qwPHUx9HzHQhv1WB46mPo+Y6EabdFfCMN0V8IwyPzEZ1dpud+qwPHUx9HzHQhv1WB46mPo+Y6EabdFfCMN0V8IwyPzDOrtNzv1WB46mPo+Y6EN+qwPHUx9HzHQjTbor4RhuivhGGR+YZ1dpud+qwPHUx9HzHQhv1WB46mPo+Y6EabdFfCMN0V8IwyPzDOrtNzv1WB46mPo+Y6EN+qwPHUx9HzHQjTbor4RhuivhGGR+YZ1dpud+qwPHUx9HzHQhv1WB46mPo+Y6EabdFfCMN0V8IwyPzDOrtNzv1WB46mPo+Y6EN+qwPHUx9HzHQjTbor4RhuivhGGR+YZ1dpud+qwPHUx9HzHQhv1WB46mPo+Y6EabdFfCMN0V8IwyPzDOrtNzv1WB46mPo+Y6EN+qwPHUx9HzHQjTbor4RhuivhGGR+YnOrtJPQ9KlmVyry1MplYUudmSUtIdlXWgogEntlpAGwd+JtHlPT0Suj0IKOQZxWw/uiPVp4v3R9UcdWHlzcLnVTmqkFKxCtNLG7aLLhcSdV2UaROsqHClxpxKkn/aLYkH+qpGWmMY3VtLmO9kA/8A3irdL/cpu30e59Yiy6D7hU75s39kRx1dTppaGfCEIyNRCEIAQhCAEai8PejXPmL/AN2qNvGovH3o1z5i/wDdqgCBaKu5faPotj7MZl3XbRLQlJaZuKcVKsTLhaaUllbpUsDJGEgngjD0V9y+0fRbH2Yj2mUkVGwyOHrq79wY7YK9kckna7O3fqsDx1MfR8x0Ib9VgeOpj6PmOhGm3RXwjDdFfCMehkfmOLOrY3O/VYHjqY+j5joQ36rA8dTH0fMdCNNuivhGG6K+EYZH5iM6u03O/VYHjqY+j5joQ36rA8dTH0fMdCNNuivhGG6K+EYZH5hnV2m536rA8dTH0fMdCG/VYHjqY+j5joRpt0V8Iw3RXwjDI/MM6u03O/VYHjqY+j5joQ36rA8dTH0fMdCNNuivhGG6K+EYZH5hnV2m536rA8dTH0fMdCG/VYHjqY+j5joRpt0V8Iw3RXwjDI/MM6u03O/VYHjqY+j5joQ36rA8dTH0fMdCNNuivhGG6K+EYZH5hnV2m536rA8dTH0fMdCG/VYHjqY+j5joRpt0V8Iw3RXwjDI/MM6u03O/VYHjqY+j5joQ36rA8dTH0fMdCNNuivhGG6K+EYZH5hnV2m536rA8dTH0fMdCG/VYHjqY+j5joRpt0V8Iw3RXwjDI/MM6u0mdqaQrXuyfdkqDUzMTbbe6qbcYcZJTkDI1wM7SNgiVR5kmyVeyKsbO3Y39pyPTccM44ZuGx2RliipbiEIRBY8yaau6ZWP6H3DcIaau6ZWP6H3DcIxepstC6rH9+Gkn023+HRExiHWP78NJPptv8OiJjFqfpM56iK89kD3Jav8Ax5T8QiLDivPZA9yWr/x5T8QiNCppXf0q/lMcI5u/pV/KY4R754YhHRPTkrT5ZUzPzLMtLpIBceWEpBPFt441NYr7TNEl6jSHpWcadnGZbXSrXRha8K4OMeeIlNR1LRi5aG9hGJLzCzPVZt96TLEq6Eo3Nfbtp1cnds7ArjHmjjTKvTaqtxFLqErOLb9ullwKKfPjveeCkg4szYRrXq/RmXENvVeQbcWooSlT6QSQcEebaMbYxpu45KVuuVobrzCHnmFOKUt3BC8gIbA+ErOfkxEOcV7kqEn7G7hGou2ttW7QJuoOlouNpwy04rVDrnEkd/v47wj7blS6uk20zNRpk5PKRux6gJ1A2Tqg4JJ2KBBPfEMaxYfcYHhxextoRjGoSQbdWZyXDbLoYdUVgBtwkAIUeJW0bPPHXIVem1F51mn1CUmnmvboZdCini4BxeeJxLQrhetjNhGCqsUtNTFOVUpMVAnV6mLo19bvY7/m4Y1LF1S05V6/TJV6TRMU1oKaW692rqtQqWVDiSggBXGNsQ6kV7llTk/YkkI13XaVk6NJztXn5CXDzaCXQ5hpaynJ3MnaR3vNHempSKqeJ9M7LGRPBMBwFvhxw/KQIlSRDi0ZUIwpOr02dm3ZSSqMpMTTWddlp0KUnHDs4/5Rx690rrl1v65yXV+dXqfdhr63ex3/ADcMMUdxhexnwhCLFSstO/uTQfnqvsiPVx4v3R9Qjyjp39yaD89V9kR6uPF+6PqEeLxXxpHrcP8ABj/JENL/AHKbt9HufWIsug+4VN+bN/ZEVppf7lN2+j3PrEWXQfcKm/Nm/siOCtqdlLQz4QhGRqIQhACEIQAjUXj70a58xf8Au1Rt41F4+9GufMX/ALtUAQLRX3L7R9FsfZiO6ZvdGxPSrv3BiRaK+5faPotj7MR3TN7o2J6Vd+4Md1L1R/dHHU0l/JqYQji862wyt59xDTLaSpa1qCUpHfJPBHvninKEYVMq1OqoWaXPy05ueNfcVhRTngyOGOKK1SnKkae3U5NU+CU9Th4a+eMY7/m4YjFHcnC9LGfCMGdrNLkXVNz1SlJd1JSCh10JUCoZTs84B/tHcielHJDq5E0wqS1C51QFgt6o4Va3eGIYlpcjC9jIhGBP1ml05thdQqMpLIfGs0XXAN0T3x3xtG2O6YqElLS7T8zOSzTDoKm3VuAJWANYkHgOwE/IIYluThexkwjolZ2UmpMTkvNMuSRBV1QlQKAkcJz3hg5+QxGrYunrvMVCafn6Q1S2XlMNMoUS8O2CULWrOMKOcDHGIh1IppbkqEmm9iWQjrcfZbmmZVx1CJl/W3JoqwpzV9tqjjxxxgOXBRW3W2nKvIJccJShJfSCSDqkebaCNvGDEuSXuVUW9EbOEYtTqUjSmkuVOcl5NtR1UqeWE6x7w4zGqrl00+ldZ1KmZRbNRfCA6XgEoawcugjhAIx8piHOMdWTGEpaI38IwZKacdqFTbdeklS8uWy2GlndG0lGsd1zsGeEeaFNrFMqjjjdMqMpNuN7VIZdCiB38d7ziJUkxhaM6Ea2Yr9GllpRMVaQaWpamwlbwB1gcEeYg7Nsd1TqlPpSELqc9LSiXDhBeWE6/wAnfhiW4wy2MyEcGHmphht6XdbeZcGshxtQUlQ74IjnErqQQOa/1FWN8jf2nI9Ox5jmv9RVjfI39pyPTkeHW+LI9il8OJ8hCEULnmTTV3TKx/Q+4bhDTV3TKx/Q+4bhGL1N1oXVY/vw0k+m2/w6ImMQ6x/fhpJ9Nt/h0RMYtT9JlPURXnsge5LV/wCPKfiERYcV57IHuS1f+PKfiERoVNK7+lX8pjhHN39Kv5THCPfPDItcSpZu9racqhQmRDUwlpT2xpMzs1ck7ASngzx8Eau5HqS8zUetCPzwq0h1Y83tZcc1uBJB1SoD22OPhicTUsxNy62JthqYYX7Zt1AWk/yOyODcjJtSjcq1KSyJVshSGUtJCEkHOQMYz54xlSbb/U3jVSt+hX92h0y9+biQGxV5QzBKSoBnVGsVAbSngyO9G0l0rdu+3FuVmhPPoUpTDdKlFBTjOrgpUQohLeODPHEyS02hbq0tthTpy6oJGXDjHbd/Zs2xjyFMkKapxVOkJSUU57dTDKUFXykCKZd3vf8Ay5bz1a1v8tYg9NkZPe7u94yzKnXXqgpa1IBUSjOrt4dnCIyKQ8ym47Qdm3Gkret/VSt0gFxfaYAJ4Vd7jibJl2EsrZSw0GXNYrbCBqqz7bI4Dnj78db0jJvCXD0pLOCXIUxrNJO5EcBRs7XgHBE+Ra1iPPve/wCpo9JISbCrmuAcMDGRwHXTHQHpaT0lnqhxiWQ9RGw0pxQbQspdyoAnZkDbEoeabfaW0+2h1pYwpDiQpKh5weGOmfp8jUW0N1CSlZtCDrIS+0FhJ82Rsi86TcsS1KwqJRwsrOZdlqlZd2uNLS7KTFxIwoHYtJW3tB7xESq4WG5TSFaCZBpqXWUTrCQ0gIylLXaJOOEAxJVSksW1oMrLltag4pG5jVUoYwojjOwbfNHNxptx1t1xtC3W86jikgqRnYcHizFFQ6dden97lnX2W/8AaxX9Bft5rRq21WUNuLDhTOy+R1Uua3TgxnX184x5hHN5bLdb0ktOFpD65FtaEKwFqSJVWsQOE8O3H84myqdIqqCZ9UjKGeHBMllO6D//AFjMc3ZKUemOqHpWXcmNQtbqpsFWoeFOcZweDEPIdkunQecrt9epBLbVLNV22nKoppKFW6wmnqmCAgObN0CdbYF4I8+I1VyrbNB0iuU0t9aFuyu5FrG5KfygOlGNnDjJHHFnTNPkpqUTKTUlLPSqcarLjQUhONgwMbP5RyEnKCTEmJWXEmkaol9yTuYGc41cY4YjLu1rlswr3t/l7kfrsnLSdy2T1HLMslqbcZRuaAkhG4ntdnFEULzFMttbsnM0qs2+3NFSpCdRuM+hwue1BB1lLCjnbtx5os9xptxba3G0LW0dZtSkglBxjKTxHEYxpdONQE+afJmeByJgsJ3TPf1sZz5+GJlQbd0VjWSVmZqsk5Ocnbt4f5x8hCOk5ystO/uTQfnqvsiPVx4v3R9Qjyjp39yaD89V9kR6uPF+6PqEeLxXxpHrcN8GP8kQ0v8Acpu30e59Yiy6D7hU35s39kRWml/uU3b6Pc+sRZdB9wqb82b+yI4K2p2UtDPhCEZGohCEAIQhACNRePvRrnzF/wC7VG3jUXj70a58xf8Au1QBAtFfcvtH0Wx9mI7pm90bE9Ku/cGJFor7l9o+i2PsxHdM3ujYnpV37gx3UvVH90cdTSX8mpjQ301Jv2xMtVKaXJyynGv+IS2HA2vXBSVJOwozjOdkb6Pi0pWhSFpStChhSVDIUO8Rxx70lii0eNF4ZJkGTN1BNemZVxNGnqy9S5gylQpZ1VpSE5SlxI2DKsap7+Ij7Te7aPKcy5WaDLS35oISxJKVONzGsDgAK1i5rZyQOAnii0KfTZGmpWmmyMrJpWQV9TtJRrY7+Btj4mmU9NQM+inyaZ47TMBhIcJ7+tjOf945su37nQuIS9jRSMow/pKrz80wy9MMyUoEqcQFapIJOAeDgER+aaUmembGSlwMTlQTNtkAgJkVZdcAI7y0lP8AOLFS02l1bqW0B1YAW4EgKUBwAnjxDcmt3DxaQXwkoDmqNYJO0pzw480XdDp/JRVrO5BT1YnSFcRRO0aSeU2z1OKmxr5lgjgbJUAEhWdYDjjAkZCUfkLUllvsVGQcrry29Rgts41SShCVZygKzji24iwqhTpGpIQmoyMrNpQcpD7SV6vyZGyO8ssnccstYZOWhqDDZxjtfg7O9Fcv1LZjp/m1jsl20IU2hDaENhXtEpASNve4IrR7c2tHE89qoShuvKW4oJHaoEyNp8wiyxs4I6ksMoaW0llpLK9YrbCBqqKvbZHAc8ffjWpTxmcKmD6kYqs/JTmlO0m5Sbl5hbaJtxQacC9UKQNXg7+DGlp8jJnRbcrplWFOurnVrWpsFRUlR1TnzYGO9E6k6ZT5EIEjISktqKKkbiylBSSMEjA4SNkdwlmBLrYSw0GF51mwgais+2yOA54+/FPJbu37/wDhdVkklH2/9IfRnpZN3yTtVcZDrlDlTIOTJASTj87qlWzW4zx4jDn5ihhugzFLQ2xTEXCQt53AZUrUVrKQScbmT3sDIMTicp8lOyyZedk5aZl0e1adaStKeLYCNkcn5KUmJMSj8pLuygAAYW0ktgDg7XGBEeS7WCrLXqV1cY1l34e3VLCcpypoN5JMvqDX4OLH+0b64Hqe/cNoCgrklzaZ0KR1KUnVk9Q6+dXgRjGM+eJU2yy0pam2WkKcwFlKANcAYAV38DZ8kdMhTZCnLcVT5CUlFu+3UwylBV8pAh5D3/y9x5y/z9rELoUjJrte9nXJdla3p2fDi1oBJCQSkZ4Rg7fNwx1U5BUbbmZCrSknXOsbSA3Umddh9rh7VR4FZ4cbcD5Yn6GGW23G0MtJbcKlLSlAAWT7YkcZPH346JumU+clm5ackJR+Xa/RtOspUlH7oxs/lEPh+iSJVfq2zT2FONTlCc3CRl5JLM06ypMqoqYcUCNZxonhQc/7RI44tNNsMoaYbQ00gaqG0JCUpHeAHBHKOiCcYpMwm1KTaIJNf6irG+Rv7TkenI8xzX+oqxvkb+05HpyPErfFkevS+HE+QhCKFzzJpq7plY/ofcNwhpq7plY/ofcNwjF6m60Lqsf34aSfTbf4dETGIdY/vw0k+m2/w6ImMWp+kynqIrz2QPclq/8AHlPxCIsOI9pCtvsvs+fonVRlFTGotLwRrYUhYWkYPESkCLsqiBu/pV/KY4REDY+mlRJM/S8nb+mZ6MfOwbTT4fS/XM9GPS5hDZnBkp7omEIh/YNpo8PpfrmejGrr9D0uUI0sT9Qp465T7VOY3NbKvzrmdXOE7BsO2I5jT2YyM37osSERWa0fabJaWdfdnqXqNIK1Yca4AMn9SNXQba0wVyiSFVkahTjKTrKX2itxlKtVXBkauyC8SpvRMl8BUXuifQiH9g2mnw+l+uZ6MOwbTT4fS/XM9GJ5hT2ZGSnuiYQiH9g2mnw+l+uZ6MOwbTT4fS/XM9GHMKezGSnuiYQiH9g2mnw+l+uZ6MOwbTT4fS/XM9GHMKezGSnuiYQiH9g2mnw+l+uZ6MOwbTT4fS/XM9GHMKezGSnuiYQiH9g2mnw+l+uZ6MfU2LppUQEz1LJPAA8zt/8ATDmFPZjJT3RL4RBLLtzSnds1Wm5KtyKZem6yBOIQ2tiZfA/RNrCdveKhsEYVt0nSzcKJ0SVQkG5qReLE3KTCmm35dY4NdBTsB4jwHiiOZU9mTkKi90WRCIf2DaafD6X65now7BtNPh9L9cz0YnmFPZkZKe6NFp39yaD89V9kR6uPF+6PqEeW67on0q19Eq3WHqVMNS7m6IT1S2nB4+BI70epDxfIB/tHBVqKrUc0dtODp01FkQ0v9ym7fR7n1iLLoPuFTfmzf2RFaaX+5Tdvo9z6xFl0H3CpvzZv7IjkranRS0M+EIRkaiEIQAhCEAI1F4+9GufMX/u1Rt41F4+9GufMX/u1QBAtFfcvtH0Wx9mI7pm90bE9Ku/cGJFor7l9o+i2Psxr9Ldq1S56LIuW7OplazS3zMygWlJQ6pQCSklWxPa5OcGO2Dw2exySV7rci8Ih/YNpp8PpfrmejDsG00+H0v1zPRj0uYU9mcGSnuiYQiH9g2mnw+l+uZ6Mae5KTpZt8SSJ2oSDs3PPBiUlJdTTj0wo8OogJ2gcZ4BxmIfiFNezC4Gfs0WRCK6uSiaXLbm6Y1Wp6RlWKg5uLc2pTW4NuY2IcXq4QTxZ2E8cbY2LppSSDP0sEcI3ZnowXiNN6JkvgZrVol8Ih/YNpp8PpfrmejDsG00+H0v1zPRieYU9mRkp7omEIh/YNpp8PpfrmejDsG00+H0v1zPRhzCnsxkp7omEIh/YNpp8PpfrmejDsG00+H0v1zPRhzCnsxkp7omEIh/YNpp8PpfrmejDsG00+H0v1zPRhzCnsxkp7omEIh/YNpp8PpXrmejGHQbY0wV2YqzMhP04rpk4qSmNdbQw4EpUcdrtGFDbEPxGmtUwuAm/dE8hEBqVtaYKfcNMoszUKcJ2otPPMALa1dVoJK8nV2e2EZ3YNpp8PpfrmejBeI03omHwM17omEIh/YNpp8PpfrmejDsG00+H0v1zPRieYU9mMlPdGJM/6irG+Rv7TkenI87Wnoy0hI0l29cV1OU99mQdTrrbmEawbGTsSkDPto9ER50p45ykvc7oxwQUWIQhAk8yaau6ZWP6H3DcIaau6ZWP6H3DcIxeputC6rH9+Gkn023+HRExiHWP78NJPptv8OiJjFqfpMp6iEIRoVEIQJwCTxDiGTACIHpZ/S2D/wBXU761xm2hcdXrF116Rq1LFKl5SWlZiVlnFpW+EulwZdKSQFEIB1B7Xv5zGFpZ/S2D/wBW0761xSTvFstHpItm4PcGpfNnfsGK30S9yy0vRrX1RZFwe4NS+bO/YMVvol7llpejWvqjGjqaVdCVwhCOkxEIQgBCEIAQhCAEVzpPmbrn5lmiUK3qq/QXNtTnpN5pp15vGSyyVKGqDsClcPCB57Gj7xK/dP1RWSuiYuzOOieqUus6O6JPUCndbKW4yRLymz80lKlJxs4doJzwnO3bFY6V52oO6RXV2Jbs89d1Il2FvTjLjSWJmXdP6F9ClArThKsEbQRxRMPY3dxK1v4Ln3y4wZHu3Xv6Np31uRywV2dEnZEgok5M1ClS01P01+lza0/nZN9SVKaUOEaySQpPGDxjGQDGbEQXcdWOkyk0E03qSkTTU2RMPkFyaWylB1kAHtGxrjBO1W3YANulnLvrrdHqt3NLkexmnTzksad1OS+9Ltuhpx/dtbtV62soI1cYTgnJjpxpHPhbLJhH1Q1VEA5HEe/HyLkER0v9ym7fR7n1iLLoPuFTfmzf2RFaaX+5Tdvo9z6xFl0H3CpvzZv7Ijmram1LQz4QhGRqIQhACEIQAjUXj70a58xf+7VG3jUXj70a58xf+7VAEC0V9y+0fRbH2YlERfRX3L7R9FsfZiUR2R0OV6iEI1l1VUUK16xVykL6gk3ZkJPApSUkpH8zgRL6EHbW52Zp9JmZqQpr9Vm0J/MybCkpU6o7ACokBKeMnvZwCYr7RLN1BrSIhd929PM3fV5d5xqcfcaUxLy7ah+Zl0JJKEgKTknaSSTmNpo5uGer75VNXTQarqSyXHpKQkVMuNKVjCgtSzroByMgYOzgjYTfdusz0VUPtNRjU6xuaw6OxKNLVUpdF0dVueuCm9dKU20lL8ns/OpUtKcbeAgqBzwjGRtivdGEzdcjMPUSv2/VWaI17mT04806803jYy8UKOsBtCVfID5pJ7JbuIXR/DZ+/biRq4f5D6orSV2TUfQ4whCOkxEIQgBCEIAQhCAER/Q37s6Rf+o3fuWokMR/Q37s6Rf+o3fuWoxraI0panTfndosT5hU/sNRJYjV+d2ixPmFT+w1GNf10GhP0mQZnZGnPVAurXPzqddqVZaCSpWpka6yVISlOeEnvQpu0bioryJdCNBY9Sm6tQ+qpydplSTuy0y8/TjhqaaHAsoydzWDkKRk4I88b+NU79TO1hCEIkCEIQB5k01d0ysf0PuG4Q01d0ysf0PuG4Ri9TdaF1WP78NJPptv8OiJjEOsf34aSfTbf4dETGLU/SZT1EIQjQqIQhAEeplLm2L/ALhqrqEiSnZKSYYWFAlS2t118jhGNcfLGk0tAh2wcj/9XU/61xOnm0vMuNLKwlaSklCilQzsyCNoPePFFMy9uro2kakSukK57hnaR1wanKDOuzKepVTCCSliYSU9q73jkBQJxjgjKf4Y2Lw6s9C3B7gVL5s79gxXGiUHestHZ/8ALWvqiy6sZbrVOdXPJYlNxXuzqlBIQjByok7BgZ2mPPWjS2ZubqTM3RrkuhNgyKUtSDM5NAKqBSfbJSlKdSX4hnarzZ2ZU3ZmlRdC5IR9Jyc/VHyOowEIQgBCEIAQhCAEfeJX7p+qPkfeJX7p+qIBH/Y3dxG1v4Ln3y4wZHu3Xv6Np31uRnexu7iNrfwXPvlxgyPduvf0bTvrcjlp+pHRP0mVVaXOP6Q7VrDDaVSVOl55uYUVgFKnUthGBwnJSfkiJVC2K+q3KtZMvT21Uqozzjqax1QhKGJR17dnEqb9uXR2yQANU5ByMYi0IR0OKZgpWOSyCslIwOIRxhCLkER0v9ym7fR7n1iLLoPuFTfmzf2RFaaX+5Tdvo9z6xFl0H3CpvzZv7Ijmram1LQz4QhGRqIQhACEIQAjUXj70a58xf8Au1Rt41F4+9GufMX/ALtUAQLRX3L7R9FsfZiURF9FfcvtH0Wx9mJRHZHQ5XqIwLgZnJihz7NL6jM+tohgTre6MKXwhLieNJ4PNkHbiM+ETqQQqSlK1XL1otbqtGNCYo8nMMBtU028uZceCQUjU2BlGqSCrBJI7URlTfdusz0XUPtNRK4ik33brM9F1D7TUZVFaJeDvIyvZLdxC6P4bP37cSNXD/IfVEc9kt3ELo/hs/ftxI1cP8h9URR9y1X2OMIQjcyEIQgBCEIAQhCAPoBMR/Q57taRv+o3fuWo1uku3a5XKSl21K5P0urywJQ0xMbk1NJ4ShWwhK/gr4BwHZwZ+gZqjN2/VHKTP1eYqD88p6qM1hxKpuWmdVKVIcwlPwNhxt/2GFZmtJe5wvvu0WJ8wqf2Gox7zos49cVs3HTZFuozNFW+lckpxLa3GnUBJW0pXahxBSCAcAgnaIxNPkpJzNQoKpCfrSLzCH2aTKUiYS0tzdAkLW6Sk6rQ1RlWzj/luLHoU/QKGiXrVbnK1VHMLmJmYcKkhWPaNA8CB/cnb3gIp9VYVOjudNj0udklV+oVKVbkH6zUDPCRbWlfU6dzSgayk9qVq1dZWMjJ4TEmhCN0rGTdxCEIkCEIQB5k01d0ysf0PuG4Q01d0ysf0PuG4Ri9TdaF1WP78NJPptv8OiJjEOsf34aSfTbf4dETGLU/SZT1ERrSPcrln2bO1xiUROuy62kJYWsoSvXcSjaocGNbMSWK89kF3JKv/HlPxCImbtFtCmlKSTNUdIl5AkG0qNkf/wBorow3xbx8kqN9Kq6MYjv6VfymOMeDzCsfZrwLhdn9TN3xbx8kqN9Kq6MYVavC4q5SZql1iyKFN0+ZTqPMrqito74OrkEHaCNoO0QhDP1ieRcL+v1Ioudv+fpNMolwMSVUt+SdK1Sa6gUOTaB+jbfdAytKNnENbAzE3GkS8EpSlNoURCEgJSlNTICQBgADV2Ad6MOEQuOqrQPwThnrf6mbvi3j5JUb6VV0Yb4t4+SVG+lVdGMKETn6xHIuF2f1M3fFvHySo30qrow3xbx8kqN9Kq6MYUIZ+sORcLs/qZu+LePklRvpVXRhvi3j5JUb6VV0YwoQz9Yci4XZ/Uzd8W8fJKjfSqujDfFvHySo30qroxhQhn6w5Fwuz+pm74t4+SVG+lVdGG+LeOCOxKjbQR7qq6MYUIZ+sTyLhdn9To0eXneVl2ZTLfatemTaJFCkh9VTCCvK1K4NU49tjhjrlbsvBq861cJtmlFdSlpeXLCqnsQGtbaCE7c63e4oy4RVcbUXVEvwXhnrczd8W8fJKjfSqujDfFvHySo30qroxhQi2frFeRcLs/qfZvTHUaFP07stt6TkaXNOqbXMSc2qYcRhOdiMDO3EXKf/APseTtOfuXQ/nivqTHrE8X7o+oR6vB1ZVYYpHzfinDQ4av5dPQiGl/uU3b6Pc+sRZdB9wqb82b+yIrTS/wBym7fR7n1iLLoPuFTfmzf2RF62pyUtDPhCEZGohCEAIQhACNRePvRrnzF/7tUbeNRePvRrnzF/7tUAQLRX3L7R9FsfZjH0kXZPWo1RU0umy9RmqnNLlkoffLSU6qNbOQD3jGRor7l9o+i2PsxHNNP/AD9ielXfuDG9WThSckU4emqlaMJaNmFvi3j5JUb6VV0Yb4t4+SVG+lVdGMKEeLn6x9byLhdn9TN3xbx8kqN9Kq6MaiYuy8XrypFwptujocp0q/LBnrkSFh0pJOdXZjV/3jKhEPj6r1JXgfCrS/1MfSJd16XrZtSt5+3qPKNzqUJLyKgVFOqtKuDV/wDLj+cbU6RbxJ96VG+lVdGMKEFx1VaEvwThnrf6mbvi3j5JUb6VV0Yb4t4+SVG+lVdGMKETn6xXkXC7P6mbvi3j5JUb6VV0Yb4t4+SVG+lVdGMKEM/WHIuF2f1M3fFvHySo30qrow3xbx8kqN9Kq6MYUIZ+sORcLs/qZu+LePklRvpVXRhvi3j5JUb6VV0YwoDaQBwwz9Yci4XZ/Uzd8W8fJKjfSqujEdqtwXm7c8pcdEoFIpVabG5TLqKgXG51nGxt5GBrY2EKyCMRtTw7YQfH1XqSvA+FWl/qau169d1GnKhU563qVVK/UFEzVReqRSooz2rSEhOENpH6o4cbYkO+LePklRvpVXRjChBcfVQfgfCvf6mbvi3j5JUb6VV0Yb4t4+SVG+lVdGMKEM/WI5Fwuz+psbb0rTMxfEnbVzUaXpszPNBUouUmDMBayrASrYNUYCjnzeeLUjzC9/qJsf8Ap/acj0/HscLUlUpqUj5bj6MaFeVOGiPkIQjpOM8yaau6ZWP6H3DcIaau6ZWP6H3DcIxeputC6rH9+Gkn023+HRExiHWP78NJPptv8OiJjFqfpMp6iK89kF3JKv8Ax5T8QiLDivPZBdySr/x5T8QiFT0MtR+JEj7v6Vf7xjjHJ39Kv94xxj5U/SkIQhACEI4rWlttbjightCSpSjwJAGST8ggL2OUIis7crztFm5hinT0o09JvPSM6rVUlRS2VBRAJLecZGtwx2s15mTbU9UJiaVuVLlplxASFJUpZwCkDbrqVs720Rp5cjDMwva5JYRoTcaWBOpqNPmZKYlpVU6GVLQ5urSfbaqkkjWBxlJ4Mwk7kMxMMsuUqcl1zcuuYkg6tv8A4kJSFEbD2hwQcK4u9EeXJexOYpvRm+hGls6ozVUtiRnqg2W33WypStmFjb2wCeAebh2RxpFwmqFlxikzhlJhKlS8wFoWhzVHtV6p/NE8WtxwwO7WxKrwsm3qbyERW07kmJ2j0NdVl1ibqbjzaHElOodQKVrYHAMDGOHIzH2u3A4zOybckzNOFmqiSfZa1SX8tFQAzsAyRtOMYzE+VK9ir4mGFTJTCNfSaomoKmmXGHJSdlFJQ/LOKSoo1hlJCk7FJI4D5o2EUas7M2jJSV0IQhEEiEIQBWmnP3LofzxX1Jj1ieL90fUI8nac/cuh/PFfUmPWJ4v3R9Qj3vDvhHxXjv8AVP8Aj+xENL/cpu30e59Yiy6D7hU35s39kRWml/uU3b6Pc+sRZdB9wqb82b+yI3ranmUtDPhCEZGohCEAIQhACNRePvRrnzF/7tUbeNRePvRrnzF/7tUAQLRX3L7R9FsfZiOaaf8An7F9Ku/cGJJor7l9o+i2PsxG9NP/AD9i+lXfuDGtf4L/AGHB/wBTD90aWEIR80foYhCEAIi9buSaka25IMNU9vc20Lb6veUyZwq4Usq9qMcHbHhiURoq3QpipmbbRVFtSU4gNvy7rCXgnZjLRUfzZI4eHbt4YvTw3/EY11PD/p6mBWrsEpV5qQl3KYy5JoQt7rg+psuKUnW3NvVHCBjKjsyRHNu4p+p1CSlqBJSixMyCJ8rnXVI3MFZQUYSDk5EZS7ecl5lx6jVJcjuzLbD6Vspf1w2nVSsFRyFhOzO0HjEZcnR0StVbnkzL7qkSKZHDp1lLAXra6lcaiY0bppdDBRruVpOyMGTuMzcvRCiXCJmeW6JhpZP/AAyWQd2OzvEADPDkRrKbfCJuakFqNO6jnX0sIYamCqbZ1iQlbifakZxkDaMjhjfU+gS0lXqjVELUtU6Mbir2jWcFzV/fIBMdFOoMxIqlWEVZ40uUWFsywaSleAchC3QcqQO9jbxwTphx4jp1OVv1OpVR+adelJRintPOy6FJdUp1a0K1c4xgJ4fPkRhVm5JqSrbsgw1T2y0hCkJnnlMqnCocDSvaDHB23HG8o9PTTJRxhDpdC33X9YjBBWoqI/lmNdW6C/UzNtCqLbkZxIS9LusJeCNmCWio/myR5jt2iKpwxddC841VTWF9TVVOs1Kk1q6JpaWHpORk5d1thS1AjWJA82Tt1vkGI2l01BbKZ2npGql2kTU1uwJ1kFIwMf3z/KPk7a7M07OJ6qdRJzkk3JvMaoUo7mMNrCztBHe4+OOHY5MzDzz9UrDk4+5IuyGRLpbSlC8ZUEg+2ztPf82IveF0zPDWScd/+/8Ao6aBVKlLsUBirSsumXn2ENMONOqW4hYaCgHcgZ1gCcjgOw9+JTGiptAdln6eqdqbs6zTkasm2ppLeodXV1lkHtyE7BwY85jexlUabujooKajaYhCEUNhCEIEkGd/1E2P/T+05Hp+PMDv+omyP6f2nI9Px9FwPwkfBeLf1Uj5CEI7DzTzJpq7plY/ofcNwhpq7plY/ofcNwjF6m60Lqsf34aSfTbf4dETGIdY/vw0k+m2/wAOiJjFqfpMp6iK89kF3JKv/HlPxCIsOK89kF3JKv8Ax5T8QiFT0MtR+JEj7v6Vf7xjjHJ39Kv94xxj5U/SkIQhACOqbl25uUflnwS0+2ppYB24UCDjz7Y7YQ0DVyKdZ685RBR3ZuQblGpRyVDjQWVzQ3MobCwR2gGwnBJONkfJ+1HJ9h9l99lKHKdKyiTqlQDrK9bJB4UHg7+CYlkI082Xsc+Wg9SHtWxMKlqmOoaJTnJiSclUIkkE5WsbVqWQCE/+UA+eNu7SXl1W3prdGw3TmHWnRtyoraSjKfkKSdsbmEQ6jZaPDwRqLVkJylUGXp86tgrlgWmnWCSFI/VUQRsVt4ODZGrpFvTstXZOffbpssphSzMPyOuhU8CCAFt7EJ4cnh2jZErhDzH1/UOhFqK2IfIW7VZClUdppyQdm6PMOrl9dSwh9pYUDrnGUqwriyNkcusNZDnVnVFO6v659cMYXuWNx1Nz4M+bP8/NEuhFvNkVysP1NRRKfMsTtRqNSUx1bPFsFuXJLbTbaSEpBIBJ2kk449kbeEIzlLE7s2hBQVkIQhEFhCEIArTTn7l0P54r6kx6xPF+6PqEeTtOfuXQ/nivqTHrE8X7o+oR73h3wj4rx3+qf8f2Ihpf7lN2+j3PrEWXQfcKm/Nm/siK00v9ym7fR7n1iLLoPuFTfmzf2RG9bU8yloZ8IQjI1EIQgBCEIARqLx96Nc+Yv/dqjbxqLx96Nc+Yv/dqgCB6K+5faPotj7MRvTT/AM/YvpV37gxJNFfcvtH0Wx9mI3pp/wCfsX0q79wY1r/Bf7Dg/wCph+6NLCEI+aP0MQhCAEcXXG2WnHXlhDTaStaj+qkDJP8AICOUYdalFz9FqEm0QHZiWcZRn4SkkD/cxK6vqRJtRbRrZGvpTSZKbqKXd3qAU/Lysqwp1xLPCnYnacJIJV31QNwMu1KjmUfYVSpyWmZhx9QxqhoDbk+1wSc5jVqaNUoFvTTMhNPoblQ2pynzG4TUssJCSE5IBTlJBB4wI6Jy2Z+uporVdU5hpqbDzwWnWbKiks6+rgLIwCcDBI2xuoQ9zgdWra0eun/BI13BT0yUnNa0wpM5nqZpEutTzwG0lLeMkY254MYPHHQa4JisUFmnLbdk58TO6FSSFpU0kEJ27UkEnIIjVVCQq88/SanUJWc6ql2XZSaap02GXCSoEOtnIBSrG1JIIz5o406gTTdSpb/Ujks0XJ12YK5kvuILrSUJUtRO1Zxt1dgiMEEtSzq1XKyXTp/wb+TuGmTk22ww+4rdVqbaeLKgy8pOcpQ4RqqOw8HDjZGDTLslJmnzc3OJdlkNTqpRtJZXrOnWwgJTjKlnBykcHmjTUW35thNJk5uRqCjIvNrW87UiqUAQdi20A51u8kgAZOYyGabVZWbRMokFvKkKrMTiEB5AEy0+FAlG3YtOc4VjPEYnBAqq1Z2bX+f+G+VcdKRTnZ52YUzLsuhl4OtKStlZ4AtBGsP7R9YqqKrKzzdGWtuosI2NTTCmylRGUayFAHVVjGfPGim6VUag/PVFckZdc1OSJRLLUkuJaYV2y1kHGTngznAjehtctdlSqszhEh1C0ndlKGO0UtSv7A5irjFaGkalRvrp/wDepkUWotVekSlQlxhuYbC9XOdQ8Ck/yII/lGbGisVhyXtOQD6Nzcd15jU+CHFqWB/ZQjexnJJSaR00m5QTewhCEVLiEIQBBnf9RNkf0/tOR6fjzA7/AKibI/p/acj0/H0XA/CR8H4t/VSPkIQjsPNPMmmrumVj+h9w3CGmrumVj+h9w3CMXqbrQuqx/fhpJ9Nt/h0RMYh1j+/DST6bb/DoiYxan6TKeoiu/ZBH/wDCSr5IA3eU4fnCIsSMGuUmRrtKmKbVpZuaknxhbTgyCRtB+UHBHyRaSxRaEJYZKWxU7rzO6K/PscJ/+KnnjjuzP7dj1qeeMb8mm1vHld/xdGH5NNrePK5/i6MePy17n033iXYZO7M/t2PWp54bsz+3Y9annjUq9j/YaKqmlru2fTVFJ1kyZmJcPEd/Uxrf7Rpr30E2/QFW0JOrVZ3rpW5WmO7rufatulWVJwn2wxszsiH4c17kr7Q3/IS/dmf27HrU88N2Z/bsetTzx2VL2LlrSlOm5hFbrhUy0twAqawSAT8DzRF7I9j/AG5X7NolYm6vWGpielETDiGtz1UqUOAZTnEQvD76Ms/H7aw/3JJuzP7dj1qeeG7M/t2PWp54xvyabW8eV3/F0Yfk02t48rv+Loxblj3K/eJdhk7sz+3Y9annhuzP7dj1qeeMb8mm1vHld/xdGH5NNrePK7/i6MOWPcfeJdhk7sz+3Y9annhuzP7dj1qeeMb8mm1vHld/xdGH5NNrePK7/i6MOWPcfeJdhk7sz+3Y9annhuzP7dj1qeeMb8mm1vHld/xdGH5NNrePK7/i6MOWPcfeJdhk7sz+3Y9annhuzP7dj1qeeMb8mm1vHld/xdGMOs+x9sii0maqdWuWsyshKo13XnNywkcQ9rkknYANpPBDlrXuF9oV2G13Zn9ux61PPDdmf27HrU88aCwfY3yVxSczVarN1mlU2YUDTZV3c+qtyxsW92uATwhI4BwmNRRdB1Elrpeta8anVZKtKKnae+xufU1SZHG1rJJDif1mySeMZEUXAX/MWfj7XXATbdmf27HrU88N2Z/bsetTzxjp9jRa6jhNarxPmDXRgfY0WuCQa3XQe8dy6MX5a9yv3i+Qr3Ti42umUMIcbWROKyErCsbE96PWZ4v3R9Qijk+xrtZK0qFbrmUnI/RdGLx5sR6HC0XRjhPD4/is3V8y1iIaX+5Tdvo9z6xFl0H3CpvzZv7IitNL/cpu30e59Yiy6D7hU35s39kRNbUwpaGfCEIyNRCEIAQhCAEai8fejXPmL/3ao28ai8fejXPmL/3aoAgWivuX2j6LY+zEb01qSmdsUqUlI66u5KjgfoDEk0V9y+0fRbH2Y777s+lXtQl0ustnVzrMvoA3RhWzKkZ2ZIGNvFHROGOnhMqVTyqqqbO5XG7M/t2PWp54bsz+3Y9annjG/Jptbx5Xf8XRh+TTa3jyu/4ujHl8se59H94l2GTuzP7dj1qeeG7M/t2PWp54xvyarW8d13/F0YiVZ0G0Waulm1rOqdUnaygpdqMw+WzLU1k/tNVIKnFfqtgg8ZwIh+HW1ZK+0F9IE23Zn9ux61PPDdmf27HrU88aC/vY3yVuSktVaXOVmqUyXUTUpZrc+qg1ja4z2uFEcJSRkjgMZdH9j5ZNZpUrUqVctYm5GZRrtPNlrCh3va7CDsIO0GIXh+LRh/aC2sP9zYMiUYDm4LlWw4surCXEgKWeFR28Jjs3Zn9ux61PPGN+TTa3jyu/4ujD8mm1vHld/wAXRi3LXuVX2hXYZO7M/t2PWp54bsz+3Y9annjG/Jptbx5Xf8XRh+TTa3jyu/4ujDlj3J+8S7DJ3Zn9ux61PPDdmf27HrU88Y35NNrePK7/AIujD8mm1vHld/xdGHLHuPvEuwyd2Z/bsetTzx1zIlJphbEyuWdZcGFtrcSQod4jPmjq/Jptbx5Xf8XRh+TTa3jyu/4ujDlr3I+8Kf5DJLzJ2l9j1qeeG7M/t2PWp54xvyarW8eV3/F0Y1Ni+x7t24Z+6WJqr1htNJqq5BotlsFaEtoVlWUnblZ4McAiJeH21ZZfaC+kDf7sz+3Y9annhuzP7dj1qeeI7cXsfbdpd/W3QmqvWFS1Tlpx51xRbK0FlKCkJ7UDbrHOfNG6HsabWP8A88rn8yz0YLw+/uH9oLfkMjdmf27HrU88N2Z/bsetTzxjH2NNrZ93K5/i6MPyabW8eV3/ABdGJ5a9yPvF8hEVqQv2RFkai0LH5valQP6znej1BFR2loHt62Llp1bkqtV3pmRdDqG3tz1FEcRwMxbcenw9J0oYWfP8ZxGYquppcQhCNzmPMmmrumVj+h9w3CGmrumVj+h9w3CMXqbrQuqx/fhpJ9Nt/h0RMYh1j+/DST6bb/DoiYkgAkkADhJOMRan6TKeohHAPskEpfYIG0kOJIHy7dkN3Z1dbd2NXONbdE4z3s54Y0sylznH0HVIIxkbY6y+yEhRfYCTwKLicH5DnbDqhltSSX2En2w1nEjPn2naIWYuVrctDp1SfdtG2JHdKi5UG6nVKsRrKpp3QOlansZL6gAlDYOQk7cCNlpdVrzNhqAxm7qef91x3y+j63pOYeMrUa5KremFTLjLVcdQlbqjlSigK2kn+8Yull1tcxYSUutKX2W0/KUqBI2r4htEZNNRdzRNYkkW1cHuDUvmzv2TFc6Ju5ZaPo1r6osa4PcGpfNnPsGK10TPNDRZaeXmhq01kKy4BqnHH3ozo6l6uhLoRw3dnVCt3Y1ScBW6JwfNnPDAvsgAqfYAO0EuJAPybdsdNjC6OcI4KeZSQFPspJ2gFxIJ73HDdWtfU3ZrdM41N0GtnvY4YWYuc4RwS+yokJfZURwgOJJHf44B9lQJS+woDaSHEkAefbshZi5zhHDd2dQq3djUBwVbonAPezmBfZCQovsBJ4FbonB+Q5hZi6OcQC/LFrN1V2Rn2boakZSnKD0pILpyZhpLoB/OrClALV3sjCcDHHmeF9lIGs+wnIyMuJGR3xt4IF5oFSVPMhWqe1LgB4O9ESjddSVKzOjQvX6hdGjGhVmsupen5ptanVpQEBRDi0jYNg2ARXmkukVrSFf1atgV9qmUqkMSc8ziQQ66l5ZUddDuQptQ1eEHgJES72N3cStb+C598uMCSUlOm699ZSU/+GU87VAbMubfkjkgryOmbsjR3u3NyMracvedQen7cQ68itT0uytlLqwgdTmYDZJS2TraxHalWM4BjYaK6g3M9k8jIuTa6TTqilFO6r190Qw4ylYSCvttTJJTrbdVQ4sRIa9IuVIScxS68qlTkk6VofaUl1pYUnVUh5skJWkjaMkEEAgx8tmlS1CkpnWqRn5udmVTU5PvuICph5QAJwO1SAlKUhA2AD+cdOF4jDErG6hHAvsgAqfYAO0EuJAPyHO2CnmUkBT7KSRkBTiQT/vF7FOhFNL/AHKbt9HufWIsug+4VO+bN/ZEVjpgda3rbsRuzW6db3Bqa41s7OLhizqD7hU75s39kRzVtTeloZ8IQjI1EIQgBCEIARqLx96Nc+Yv/dqjbxo71ebbtOsJccQgrkn0p1lAZO5ngzBK5F7EH0V9y+0fRbH2YlERXRe603owtEOutNnrWxsWsJ/V85iTqeZSQFPspUeAFxIP9sx2xTscsn1Ocau5Kyih0szW4Km5pxYl5OTQcLm5hXtGk97OCSf1UhRPBGx3VrX1N2a3TONTdBrZ72OGNLcNvUW5X5FypOvF6QUtbC5OfWwtrWGqs5bUDwDGeIE9+DTt0Cav1NDZj1zVuxao1N1lmWuFFTnJI1BLG6IZ3N3VO5IyNgwQnPBwnMa7RlSKzo+vyj2wqvNVOlVWWnJ54GQQ06p5Kk9ut3JUtR1uEngAEb3R1a0taMjVW0z4mDNTz0zrKnVPJQ0pZLYOudi8HtlfrHhJj7MOIc022bubiHAKXUNqFBX6zXejGcfw3ZpCX4rIkWmu4Kha2i+u1qjOpZqEqhstLUgLCSp1CTsOw7FGIbYli1m1K7Pzr10NT8nUFF6akEU5Mu0XSB+dbCVEIVs24GFZ28WN57JXuIXR/DZ+/biQOPspI1n2E5AIy4kZHfG3aPPEUVctVdkcoRwLrQXqF5kL+CXAFf2gHmirVDzJX8EOAn+0dFmYXRzhHAPsqzqvsEAZOHEnA752/wC8A+yUlQfYKRsKt0TgfzzCzFznCOG7s6oVu7OqTjW3ROM97OYF9hIBU+wARkEuJAPnG3bCzF0c4RwU8ykhKn2UqPAC4kE54OOG6ta+puzW6Zxqa41s97HDCw6HZEe0Oe7OkX/qN37lqN6l5lRIS+yojhAcSSO/xxoNDSkrq+kRSFBSTcbpBScg/mWoxrLojWlqcL77tFifMKp9hqNZpXptBNBcq9XoEnWao0ESdOamATrvurCW29ih2usrJ8wMbG/loRpmsQuLSgdQVPapQA9q1342FcpdPrLtGenJpKUU2eRPshLqNRx1CVJAVnhA1idnHiIppuPQVHaR1WTbTFoWvJUWWcLpl05eeP8A8V5W1a8cQJ4BxAARvI4KfZTjWfYTkZGXEjI7427YF1oL1S80F/BLgB82yN0rGVznCOAeaKtUPNFfwQ4Cf7QS8yrOq+wrAycOJOB3zt2Dzwsxc5wjihxtzJbcbcA4ShYVj+0coA8yaau6ZWP6H3DcIaau6ZWP6H3DcIxep0LQuqx/fhpJ9Nt/h0RLJphualXZd5IU06goWk8CgRgj5Iidj+/DST6bb/DoiYxen6TKepGJSxbflJOclZemyyGJtCW30BGAtKTkA9/B2wTYtvppa6cKdLdRreD6mtTtS4BgKx38bIk8fY0uylkRd+xbffp8rJO06WVLSpUWWyjYgq9tj5eOE/Ytvz4lhNU2WdEsylhoKRnUbHAkeYRKIQxMWRGZ+0qAakqtzspLCZZKXlTS07U6gGFE+YAfJiK1u42Uu6LKm7ZqNGmau9dMkt3qN9C3FIUtWsogHgJI298iLwGQcjYRFbTlBl9HlwPXTRKJLTtBdcD9Tp7cslT0kof/AJqWOMgDhUgd7I82dSUrdC8Er9S5Lh2UCpZOP+Gd+yY8+aMjo/c0c0WmzNToPVs9LsdVSiphG6OPjOqFIzkqBOwcO2LkuS/bepFnNXA5NJnpCcSEybcsN0XOrV7VptP6yjwY4tucYMQOyLKKK2q7bmptPlK+6jVlKfKsoSzSmdpCBgDXdOTrL4skDAjCk2n0NaiVupuF2JQFUtumrp0v1I28p9LRR2ocIwVY7+NkfJyxLfnJSTlpimyzjEogtsIUjIQknJA7wJ2xKcQxHXdnPZEZn7IoM/NszM3T5d15lCEIWpGSEo9oP5cUdnYfRuvvXnqJjrluu7dUavb7p8LPfiRQxEXYsRmRsmgyE29NSlPl2nnkLbWtKMEpX7YfIeOOEnYtvycrOS0vTZZtmbQG30JRgLSDkA98A7YlOIRN2LIi6LFoCKW5T006W6jcdD6m9TtSsDAVjvgbIP2Lb79OlZFynSypWWUpbTZR2qCr2xHyxKIYhdiyIvP2Lb8+iVTNU2WcTKshhoKRnUbByEjzbTHbNWZQ5uq9c5iQYcnk4UHlJ7bKU4Sc+bA/tEjh+qr91X1RGJ7iyI/7G/uJWt/Bc++XGjdpcpU9Nd8InGUOpNIkmSFDOULK9ZPyHA/tG89jf3ErW/guffLjBke7de/o2nfW5HJT9SOmfpO5ixbfYp01ItU6WTKzRSp5sI7VZScpz8mdkFWLb6qWinGnSxk0PF9LWp2ocIwVY7+NkSjEI7MTOayIvN2Lb83JycrMU2WWxKJUhhCkbEJUckD5TtjlP2RQZ+ZYmJunS7rrKENoUpGSEo9qB5hEmxHyF2LIrPS5aVHTZF3VrqFg1IyTjhfKe3KjgFWe/iLpoHuFTvmzf2RFaaX+5Tdvo9z6xFl0H3Cp3zZv7IjmrO7N6WhnwhCMTUQiJ37NV9huUTRJymUmQw45UKxP4WJNCQCnVbKkhRUTgqKgEgHhJEfNF9xTtz2sJ+ottFxEy9LomWElLM4htZSmYbBJIQsDIGT/AGxAEthCEAIiukaiyNVtioPTzAcclJR9xlRJBQrUJyMHvgH+USqNRePvRrnzF/7tUSnbqiGr9GVJZlpUe4dHNoTFYkmZp0UxvCnU6x7Yayv7kkxIp6yaFPTzU5NU+XdmGktpStSMkBHtBnzYGI69FfcvtH0Wx9mJRHbGTscrSuR5Nn0ZNd68iSYFS3UvdUanb7of1s9+OuQsegyEy+/KU6XadebW0tSEYJSv2wPmMSbEIXZFkReUsW35STm5WXpsshibSlD6AjAWEnIBHmO2NNSqBTrf0zWizSpVqWbdptQWsNpxrKy0Mn+UWDiInN926zPRVQ+01GdVvCXpr8RleyUONCF0Y/ZND/O3HVUbFt+eMqJqmyzolmUsNBSM6jaeBI8wzHb7JbuIXR/DZ+/biRr4f5D6opQdrl6vsRuYs2iTFZTVXpFhc+laXA+UZVrJACTnvjA/tCVsyiStXXU2JFhE8tS1F5KMKysEKOfPk5+WJHCOjE9zGyIvIWLb8g3NIlabLNImmSw6EowFtk5KT5tggzYtvs06ZkW6dLJlZlSVuthHarKfak/JxRKIQuxZEXXYtvrpbVOVTpYybbqnkN6napWRgqA75GyE5YlvzkrJy0xTZZxmUQWmEKRkISTkpHeBO2JRCF2LIjM9ZNBnpxmam6fLuvtJQhC1oyQlHtB/LGyO3sPowr3XnqJnrluu7dUavb6/ws9+JDiERdixBZqlWNas+p2oP0ekzM204kGYcSyXEK2Lxk7Qc7Y7/Y8ppjbd8IoLks5SxX3Op1Sygpso3FrGqRsIja3palLvGiqptXa2BW6S8wlILks4OBaM/wC44COGOnRhcPW2ors65JKRptwpBeYflGEsy9WbGzdmwAAFgAa6OEYyNmwYVm2bUkjQ6bEUFzSZY6bpfkWKb1HUdZc4sIbCtVrV2nZnMZVOt+y7ipTUtSjSqlIyK1aollB1DK17VDIOATgGOekOpJvmtPWnbkvJu9SZbq1bel0PJp6VcLLOsCC+oDbjYnj2jtZHbtDptt0aWpNElUysjLjCEDhUeNSj+so8ZiaMpIiqlc1M/Ytvz6ZVM1TZZ1MsyGGgpGdRsHYkebhjtmbNokzWEVR+RYXPpUhYeUjtsoACTnvjA/tEjxCN7sysiOS1m0SWrC6oxIsIn1KWsvBPbaygQo575yf7x1SFi2/ICaEpTZZpMyyph0JRjXbPCk+bgiUR8hdiyNTb1vU23mXmqTKtSyHlBbgbTjWIGATG2hCIB5k01d0ysf0PuG4Q01d0ysf0PuG4Ri9ToWhdVj+/DSR6bb/DoiZRC7LClXZpLSlRQo1hACwMlJ6mRg448cMR+vv1aiVWTpszpEuB+bmFsoUJaiSriZcOr1G1PK1cIClbBk5OOCJhK0TOSvItOIXplqM9StHVQm6VOPSU4H5ZtD7JwtAW+hKsfyJjZ2JOKnaCpxysTdWebmHWXXJyVRKvMrSQFNLbSAElPD5woeaNFp37l1R+dSf4luJm/wADaIgvxJM+LseppWoDSDeGAcf8w10I49hFT+MG8OUNdCJw7+kX8pjhHzmardx9AuFpW9JCuwip/GDeHKGuhH1Nk1QEEaQbwyP/AN9roRNIQzVbuJylLtKskNDEjT6ixPyd1XI1NMLdcZWlxrDKnP0hQNTCSrjIAjfdhFT+MG8PXtdCJrCC4qr3DK0n7EK7CKn8YN4coa6EOwip/GDeHKGuhE1hDNVu4ZSl2kK7CKn8YN4coa6EOwip/GDeHKGuhE1hDNVu4ZSl2kK7CKn8YN4coa6EOwip/GDeHKGuhE1hDNVu4ZSl2kK7CKn8YN4coa6EOwip/GDeHKGuhE1hDNVu4ZSl2kK7CKn8YN4coa6EOwip/GDeHKGuhE1hDNVu4ZSl2lfUbRq/RKYxT6TfV3SkiwCGmWphsJQCSTganfJ/vH1nRs+xU5qotXzdqZ6aQht97d29ZaUZ1QTqcAyf7mLAhEZmr3E5alsQrsIqfxg3hyhroQ7CKn8YN4coa6ETWETmq3cRlKXaQrsIqfxg3hyhroRHtGlz1hnS9clj1CozNWkZRtUwzNzytaYTqpR2uRhODrni4otaPOMtV6tRvZLXbM0CiJrU2WFtmXVMhgBBS1lese8QNnnjs4GvUnO0nc4+NoQhD8KLs0v9ym7fR7n1iLLoPuFTvmzf2RHm7SLel6T1g3BKz9gtyUm9JrQ9MiqJc3JJxlWrjtvkiYU3SHpGZpsm23oyQttLDYQrry2NZOqMH2vGI9Gq7s8+mrIvCEUxvkaSfivR9Mt9GG+RpJ+K9H0y30YzNCfXo7Xpd2RcpNJlq3Slbo3UJBSkIeUCBqLbKyEEAg5So7cjHBGDopoFQoVIqiqnLNSCqjUXZ5mmsuboiRbWEgNAjZnKSo6vagqOIh2+RpJ+K9H0y30Yb5Gkn4r0fTLfRgC6IRTG+RpJ+K9H0y30Yb5Gkn4r0fTLfRgC541F4+9GufMX/u1RV++RpJ+K9H0y30YwK/pB0iTNAqjL+jRDTK5V0OOdeG1aidQ5VjV24GTjjgCR6Kkk6L7SwCcUpgnzdrGs0nuT7lRs6m06rz9JRUqg6w+/IrCXCkMlQGSCOEf7xTdRum6EaI7cQuhro8nTpZlySq7NaSwpxSU4Sdzx22R+ptjbWjeF2XXVdHq7spCWEN1N3cajsaM0ep15y1jh4DrDAOeCNKs2qbtsZ04Xmr7lj9hFT+MG8OUNdCHYRU/jBvDlDXQiawjws1W7j3MpS7SFdhFT+MG8OUNdCMR7RvMPVOWqLl9Xaqelm1tMvbu3rISvGsAdTgOB/aLAhDNVe4ZWkvylfVrRq/W6Y9TqvfV3Tci+AHGHZhtSF4IIyNTvgf2jM7CKn8YN4coa6ETWEFxVXuGVpP2IV2EVP4wbw5Q10IdhFT+MG8OUNdCJrCGardwylLtIV2EVP4wbw5Q10IdhFT+MG8OUNdCJrCGardwylLtIV2EVP4wbw5Q10IdhFT+MG8OUNdCJrCGardwylLtIV2EVP4wbw5Q10IdhFT+MG8OUNdCJrCGardwylLtIV2EVP4wbw5Q10I19Z0XKrTcsiq3rdcz1M6H2FLea1mnBs1kqCMpO3iMWLCIzVbuGVpdpXlG0ZuUSnIkKRe11ScohSlhpp5pI1lHKie02knjMZ3YRU/jBvDlDXQiawic1V7hlaXaQrsIqfxg3hyhroQ7CKn8YN4coa6ETWEM1W7hlKXaQxFj1NSgN8G8Nv/8AIa6Eaf2Pl31a56RW5Stv9VO0ma3FubWcuvJUVntzwbMADEWc1+kT8sUj7FT2l7EjP/iDez1keh4fWnUk8TucHHUYU4rCi94RWt8vVK2wubmr9rjaX1OusU+So8tMOBtA1lkDVzqISRlSj3snJjfWLMPuTdUl5y5p6tTDCWVFqckmpYtIWkqQ4jcwNdCwcZ2jKSI9TF1seZh6XKQ01d0ysf0PuG4Q01d0ysf0PuG4RR6my0Lqsf34aSPTbf4dERbSyZGnVouNXRSaXOz5k5qYkp+Wdf3Qyrmsy6ncu2QDjVIOxQGzBiU2P78NJPppv8OiNJPVaclNIVanrSqtnvpmJSVbnWqlUVNLStAXqFCkgjGqSCnbtGdh4YXpKv1MkOjZclM0ScqElVk1h+oTzkzOTiGFMIU+QkFKEK2pSlKUJGc5xnOY1mnfuXVH51JfiW439l15+4KdNvTjtLdm5SbXKPGmPLdYSpIScBawCSNbbjZ5+GNBp37l1R+dSX4luLS+GysfWiau/pV/vGOEc3f0q/3jHCPlWfTrQQhCBIhCEAIRENJdYqdFpMk7TVuyss7MhueqDMmZtckzqk64a48kAZIIHeOyI/L3vN0yyK9Wmq1Tbsl5ZTLdPfZQGXlOOqCQiYbAAThSknIxkA8EaRpSkroylWUXZlnwiATczdFpVCiTFbrbNakKjPNU+aYTJIY6lW6SEraUk5KQrAIVkkR0U6bvG6ZSo1uhViTp7DU09L06muSaXETAaWUZfcPbAqIPtcY88T5T1v0I872t1J61Pyj1QmZBqYbVOyyEOPMg9s2ledUn5cGMmKcr92u21pIuBCZZlNdqUhTJeXQ8o9SsOq1gpbruNiEFQ7xVsGzJxur6uietddv0Gbr7UpOTjbr09WnJHdC2hGBhthII1lKOBrZAA25JiXRd1b3KqurXZZClBKSpZCUgZJJwAO+Y4sutvsoeYcQ6y4kLQtBylSTwEHjEVAm5pu4bRvmjN1xNSRK0tcxL1hFPLJebKVboy42oBOuBs1k8Ss7CI65as1i37GsZmarkxTqLMUxDz9ZZpaZgy/5tG5S+qAUpABP5xQJOOLbE+Q9x5/6FzQiPWHPzdSoG7ztVplYAeWhmfp+xL7YxgrRwIc4cpGzgiQxjJWdjaMsSuIQhEFhCEIARR9hf6rbw+ZO/UzF4RR9hf6rbw+ZO/UzHf4d8Q4PEPhos7S+BvU3bsHue59Yiy6CB1ip2wf8ALN/ZEVppf7lN2+j3PrEWXQfcKnfNm/siPXrank0tDOwO8IYHeEfYRkanzA7whgd4RXmly5ajQF0BiXqTNCpk/MONTtbeaS6JPVbKm0BKu1y4QRrHIGDxkRsdE1fqNx2mZ2qlt8om32JeeaRuaJ9hCylEwEZOprAcGeLI2EQBMsDvCGB3hH2EAfMDvCNReAHYjW9g/wCRf+7VG4jUXj70a58xf+7VAFY2JRKdWtF1kJqkozNJlpCXeZDqAoIWEe2GeOON/toaurRwltISBVnuD5sqNnor7l9o+i2Psxr9Invs0c+l3/w6o1r/AAX+xlS+Kv3JZCEI+ZPpRCEIAQhCAEIrzSRcdQo1dp0q7U37ft92XU47WWZATZ6o1wAyQQQ2MHW1iNvBswY4OXNXOxy3paQqVEqNZrVQXJS9UlgVywZSCovFv9oEjBRnAVGqotpMxdZJtFjR9iu5i4KrZVaMlc1TFcp8xTpqoS8z1MiXfQuXQFuNqCO1UkpOQdhHBtjvtwXvPSVGr5q0lMpn9yffoxlUtNMy7gB7R0ZWXEpOduQTDyna9wqy0sTKn1KSqQmTITLUx1M+qWf3M53N1ONZB7xGRs88ZUUlaFwzLdduG06G+1KVioXJUHjOzDWs2w0Ck9oDscdIBwjiGSY3V53wJe8Zm3+ycW5L0+XaW9N9b+q35l1YJCUjVKUJAwSSMknAizoNSsVVdWuyz5h9mWZU9MvNstJxlbiglIzsG0+cgR28B2xR9z16oXboqedM+hp6RrbEq5MtSeq3PI3ZG5vJQvagdsFY4ykjgMbu7bkrFJuh6lVm51W7KMS7Qk6mulpeaqbxSS4pxWCloBQ1dQY7+eCHkPcZhX0LUhGBbz8zN0KnzE+7JPTbrKVuOyKythZP6zZPCk8UZ8YtWdjdO6uIQhEEiEIQBza/SJ+WKR9ir7S9/SDf/uRdzX6RPyxSPsVf0d7+kG//AHI9Pwz1s8zxL0omul9qTZkWJ924ZKhzjkrM0tJnGVPNzLD6RuiNRHbhSSlKgocGNoIMfNFE1J1OZqE/2QSlZqiJSWkVpk5V2XYlZdvW3NKQ4NZSlKK1FWe8AAI7L2n3GLzoU1QKlbaazKS8004xVZwtJLSi3rAFIOosEJ4cHGRgjONtZ9x1GsVOpSFYdoC5mUaaeAo825MpSlZUO3UpIAPa8AJPf4o9f8x5X5SjdNXdMrH9D7huENNXdMrH9D7huEQ9TRaF1WNsvHSRjx23+HRESuun0eUuyZapNoWspmXmKa3U3ZuQS646Zp7USGUAaqMJ1iVn2ysDBxEtsb346SMeO2/w6I0+k5m3RW2F3nQqnqlptumVKmKdDs09r5EodzIw5r4UgK2HtiCCDEL0lH6iSWFNh2mT9PMhT5F6kT7tPdbpyAiWUUhKgttI4MpWnIO0KBjTad+5dUfnUl+JbiQWPIzFNt5uWmKOzRUBxa2ZJDxeWhs7Qp5Z9s6TrFRBPFtO2I/p37l1R+dSX4luLS+GyI+tE1d/Sr/eMcI5u/pV/vGOEfKs+nWghCECRCEIA01y0yoz6JN6iVZdMn5N7dUFSC4y8CMFt1AI1kkcG3IO0RGxo+NUZuJy6ZyWfna3LtSznW6X6naYS2dZCkgklSwrCtZR4gOCJ7CLxqSirIzlSjJ3ZCWrVr1Sn6Ou7q9Jz8lSX0TbLUpJlhUy+gdo48oqPAcnVSACTHW9Z1almqnTaBcDMjQ6i8684hcqVzMqXTlwMOBQABJOCoEpzsidQifNkR5MSJJsaRcnK4mdcVNUuqU2WpplnMqcSlkEBZcJOsraFA8IIzGN2I1huSoMwzX0G5KKhcuzPuS5U3My6sAtvI1sk4Ce2BzkZ4Ym0IebIeTEi8nbtUmpOuJueuLnnqtLGULUs2WpaUbKCn80gknWOsSVE5OAI1tMta6KTSaO3IXLKdWUyW6hDbsosykzLgAI3RsLyHE49uDtGzHDE6hDzZDyYkdsq2128zU3JqZZmZ+pzRnJlcuwGGQrAAS2gE4AA4SSSckxIoQikpOTuy8YqKshCEIgsIQhACKQsEE+ytvAAZPUTv1Mxd8eTr4o1wV/Tbe8laswtqcLKluoQ6Wy8yEt6zefOdXYSAcR3+H/ABGcHH9YI9B6TqpT6popvXrZPSs4JaUdYfMu4FhtwYykkccWvQfcKnfNm/siPHsjSLtRoduEStaVTaVJMONT1JdozbKlKGNYbpwqzsOuDFwU219LiqZJql9IksllTDakJ6zMHVBSMDONuOCPWqO55cFYvGEUv2LaYvjGlvoVjmh2LaYvjGlvoVjmjMuSy/qJVnbnt646NIStXVSkzDS6dMPBondQgbq0sgpC06pG3hSojIjI0YUCoUOn1d6qsyspMVWou1ASEqsralAsJG5hWBrHtSpRAAKlHA4zC+xbTF8Y0t9Csc0OxbTF8Y0t9Csc0AXRCKX7FtMXxjS30KxzQ7FtMXxjS30KxzQBdEai8fejXPmL/wB2qKu7FtMXxjS30KxzRgV+2NLSKDU1zmkKXclkyrqnG+s7CddIQSU5AyM8GeLMASPRX3L7R9FsfZjX6RPfZo59LPfh1RBrDoOkh6xredpl7tSsguRaVLy5pbS9yQRsTrHacd8x3TlKvKQvuw3LruZFYllVJ5LLSZFtjUXuCsqynh2bMRpXf+k/2M6S/wBRfuW/CEI+aPpBCEIAQhCAI9XqVXHKs1U7drLUq6GOpnpKeaU9KOpzkL1UqBSscGeMbI0Uro76moRaYqgYroqqq0ieYlwhpuZUNUpSzn9EU9qU5yeGJ9CNFVklZGbpRbuyHSlpTlRrC6pec9KVF4SbsgzKycuWZdpp0YdV2xUorUNmc4AjEp9m15iSplFmbmQ5blOcbU2liVLU4822ctsuOhWrqjtQSkAkDzxPIQ82RHkxIG5o9DtCrkkuo6k5OVp6uSU401qqkn1KBRgZ7bGCDwZB4ozJq3K7L1w16g1eQlatNyrUtUmpiUUuVmlN+1dSAoKQoZIAyRg4iYQifNlqPJiQ2p2bO1Ky5ukT1fmJqqTMymdM8+jWQ26laVpShvPatDVA1QeMxzmaJdiZp+Zkrhp7ip1ptM5Kz8mt6WQ4lOqVsI1xqBQ2lByM7Yl8IhVZB0Ys0tmW9L2pbEjRJR1bzUqFfnFgJK1KUVKOBsAyo4A4BiN1CEUbbd2aJWVkIQhEEiEIQBza/SJ+WKR9ir+jvf0g3/7kXc1+kT8sUj7FX9He/pBv/wByPT8M9bPM8S9KJTpTkaYxP7vI2xbk5Xl06cqLk3VJQOI3FhKNYFIwXHCSkAk9qMnzHeWK8xK1apUeXo1JprYlZWpsmmspaC23kkarqQNjiVIV5ikiGk9mkKkJM3dSX37dG6bvUmFOBynrIwCdTt9zWkqSojIGwEEHY0a09MlKzr0lQHqPSZrc1yzk8+p2encJxuj2sSUJCcBCCcgZ2Dgj1/zHlflKW01d0ysf0PuG4Q01d0ysf0PuG4RD1NFoXRZaEuXXpMbWMoXWUIUODIMsgEf2jgdFVklGoqh66NnarnZhQ2cB2ucI4jHbZf5u+NJLK9jgq7Lmr/5VSyCDExiaaTiZzfU11AolOt+n9Q0eXMvK65d1C6tw6xxk5WSeIccRXTky+/owqiZWXfmXEvyrm5sNlaylL6FKISNpwAT/ACidwO0EHgIII74PCIvKN1YqnZ3Kgc0+2GVqImqjgnP/ACh5447/AJYnhVR5IeeLDFl2qBstih8hb5o+9hlq+TFD5C3zR5/LKe53rxCZXe/5YnhVR5IeeG/5YnhVQ5IeeLE7DLV8mKHyFvmh2GWr5MUPkLfNEcsp7jmNQrvf8sTwqockPPDf8sTwqockPPFidhlq+TFD5C3zQ7DLV8mKHyFvmhyynuOY1Cu9/wAsTwqockPPDf8ALE8KqHJDzxYnYZavkxQ+Qt80Owy1fJih8hb5ocsp7jmNQrvf8sTwqockPPDf8sTwqockPPFidhlq+TFD5C3zQ7DLV8mKHyFvmhyynuOY1Cu9/wAsTwqockPPDf8ALE8KqHJDzxYnYZavkxQ+Qt80Owy1fJih8hb5ocsp7jmNQrvf8sTwqockPPDf8sTwqockPPFidhlq+TFD5C3zQ7DLV8mKHyFvmhyynuOY1Cu9/wAsTwqockPPDf8ALE8KqHJDzxYnYZavkxQ+Qt80Owy1fJih8hb5ocsp7jmNQrvf8sTwqockPPDf8sTwqockPPFidhlq+TFD5C3zQ7DLV8mKHyFvmhyynuOY1Cu9/wAsTwqockPPDf8ALE8KqHJDzxYnYZavkxQ+Qt80Owy1fJih8hb5ocsp7jmNQrvf8sTwqo8kPPES0PVuRuT2SFy1elKcXIzUg6pouI1VEfmhtHFwGLx7DLV8mKHyFvmjKplvUSlTBmKVRqbIzBSUF2WlkNqKTwjIHBsGyNqPBRoyxRZlW4uVVWkaPS6hKNFN26oA/wDDnOD5RFmUH3Cp3zZv7IistMbiW9FF2FZwDIKSPlKkgD+5Eb+/63VLZ0eSHWTcBXpl2Sp0kiYGUF5xxCcK82rrf2jStqZUtCewimqzfFyWhPXezPTEvcKpGUknpZtqW3AtzU08tptgJSSVo2BWT22Nm2OEveFzyDNb6vnJ+alGqRNTxn5mgLkeo3mgCEpSvAcQoFWAdoKdpOdmRqXOlQUDqqBwcHBj7Hnu0rgr2j6hUmhTLqJ92at5udkWXWghxdRmJgJDSlZ7YazwyeHAUTGfK6U7gXb8lOtNy01MSFPQqpIQlOrMT0w91PLMJORqDWCnFHBOrq8GYAvWOqZmGZVkvTTzbLQIBW4oJSCTgbT3yQP5xV85clxWTXG5e5qpL1uVmqVO1FZYkgwZJUslClYwo6zatfA1u2yBtOcREbrq9x9h9nTF6THXB2sz8jNqpFMpxLiEMIXMLQBkqcUspaBBwlJzxDMAeg41F4+9GufMX/u1RrdHVQqtatxmt1ebk3RUwmalpeUT+blWVAFLeudrise2UQNuQAAI2V4+9GufMX/u1QBA9FfcvtH0Wx9mNDpiqbVCm7Lrc81Mqp1NqTr004wyXC0gslAJxwDWIGTG90Vdy+0fRbH2Ykc5Ky87KOys6w1MSro1XGXUBaFjvKB2GOmUMcMLOdSwzxFR7/lieFVHkh54b/lieFVDkh54sTsMtXyYofIW+aHYZavkxQ+Qt80cPLKe528xqFd7/lieFVDkh54b/lieFVDkh54sTsMtXyYofIW+aHYZavkxQ+Qt80OWU9xzGoV3v+WJ4VUOSHnhv+WJ4VUOSHnixOwy1fJih8hb5odhlq+TFD5C3zQ5ZT3HMahXe/5YnhVQ5IeeG/5YnhVQ5IeeLE7DLV8mKHyFvmh2GWr5MUPkLfNDllPccxqFd7/lieFVDkh54b/lieFVDkh54sTsMtXyYofIW+aHYZavkxQ+Qt80OWU9xzGoV3v+WJ4VUOSHnhv+WJ4VUOSHnixOwy1fJih8hb5odhlq+TFD5C3zQ5ZT3HMahXe/5YnhVQ5IeeG/5YnhVQ5IeeLE7DLV8mKHyFvmh2GWr5MUPkLfNDllPccxqFd7/lieFVDkh54b/lieFVDkh54sTsMtXyYofIW+aHYZavkxQ+Qt80OWU9xzGoV3v+WJ4VUOSHnhv+WJ4VUOSHnixOwy1fJih8hb5odhlq+TFD5C3zQ5ZT3HMahXe/5YnhVQ5IeeG/5YnhVQ5IeeLE7DLV8mKHyFvmh2GWr5MUPkLfNDllPccxqFeo0+2GFAmaqGPmh540fsTH0Pyt5PMntVzrS054cEOY2RbvYZavkxQ+Qt80bCl0imUhLqaRTZKQS6QXBKspbCyOAnAGY6KHCRoO8TCvxUqysyPTmjW0J2amJmbo5demFqW8TOPgLKjlWU6+MHJ2YxG0tm06Ha/VAoEj1GHwlLg3ZxwEJzqgBajgDPFiN3COqyOa70PMmmrumVj+h9w3CGmrumVj+h9w3CMnqbrQuy7ALS0uStYfw3Rrol0U2YeOxLU60SWSo8QWklA86YmBBBIIwRxGNrdNAp10UGco9alxMSE0jUcQdhHGFA8SgQCDxECKt65V/R4nqG8pecrNAa7WWuGTaLrjbYGxM22O2yNg3ROQdmduYrTnboyJwv1RPIRpKVd1tVdkO0y4aTMI/8s0gEfKlRBB+URn9dqX41pvK2+eN8SMbMzIRh9dqX41pvK2+eHXal+NabytvnhiQszMhGH12pfjWm8rb54ddqX41pvK2+eGJCzMyEYfXal+Nabytvnh12pfjWm8rb54YkLMzIRh9dqX41pvK2+eHXal+NabytvnhiQszMhGH12pfjWm8rb54ddqX41pvK2+eGJCzMyEYfXal+Nabytvnh12pfjWm8rb54YkLMzIRh9dqX41pvK2+eHXal+NabytvnhiQszMhGH12pfjWm8rb54ddqX41pvK2+eGJCzMyEYfXal+Nabytvnh12pfjWm8rb54YkLMzIRh9dqX41pvK2+eHXal+NabytvnhiQszMhGtm7gokmyp6brdKZaTtK1zjYA/3iMO325XnV0/RtILr8+SUGoLQpunSp+Et0ga/f1U5zjEQ5pEqLYv1PZPcVAsaVG6dVPt1Oq42hmSZUFAK7xcWEpH94s+uUCSrczSXp8OKNMmxPMJSrCd1CVJSVDjwFk/LGl0d2W3acpOPzU0upV+pOB+pVJ0YXMOY2AD9VCQcJSOARMI5ZSxO50RVlYitRsOh1HsiM4y84quqZXNK3UpUlTKQGi2RtSUlIUMce2MJrRtRlUysytRmapVH6tL9STU7PTRcf3EZw2lQACEgknCQMkknMTeEVLEU7BaS7V7cqk6ubnqjQWltSsxMu66la6dUqc2DWVjgPETmOiS0b23KWpU7dalFmnVGYXNTGXDuinVKCgsKG0FJSnVxwaoiZQgCB72FGekqs1Up2r1KbqcqJF+fm5rWmBLg53FCgAEIJySABnO3MSSct6RnLgpNZeQszdLbealQFYQgOhIWcd/CAB5sxuIQBp7Vt6RtekimUkOIkUOuOttKVkNa6yspT3kgqOBxRl1mTNQo89JBWqZlhxkHvaySP/vGbCAKi0OzQmdGVAaKSh+RZNPmG1cLbrKihSSOI7Af5xMYiV00WqWTctQua3JB6qUGpqDtYpUsMvtPAY6qYT+sSPbo4Tw/Jl0O97XrjWvTa9T1KHtmXnQy62e8pC8EGOmE00c84tMkUIw+u1L8a03ljfPDrtS/GtN5Y3zxfEilmZkIw+u1L8a03lbfPDrtS/GtN5W3zxOJCzMyEYfXal+Nabytvnh12pfjWm8rb54YkLMzIRh9dqX41pvK2+eHXal+NabytvnhiQszMhGH12pfjWm8rb54ddqX41pvK2+eGJCzMyEYfXal+Nabytvnh12pfjWm8rb54YkLMzIRh9dqX41pvK2+eHXal+NabytvnhiQszMhGH12pfjWm8rb54ddqX41pvK2+eGJCzMyEYfXal+Nabytvnh12pfjWm8rb54YkLMzIRh9dqX41pvK2+eHXal+NabytvnhiQszMhGH12pfjWm8rb54ddqX41pvK2+eGJCzMyPoBJAAyTGufrlHl2lOv1mlttpGSpU42AB/9URGeu2cu1blF0Y5m5lw7lMV4oIk6ek8KkKON1cx7VKdgO08EVc0kSotnnrTRX52c0oXA5SpRczJofSwl1DalBRbQltWCNh7ZKh/KEe0LStSlWxbkhRpFhK2JRvUDjoCluKJJUtR76lEqPnMI58bOjCb+EIRQsRqrWFaVXeL1UtqjTTxOS45JtlR+U4yYwN6uwvJCh8jRzRNIQBC96uwvJCh8jRzQ3q7C8kKHyNHNE0hAEL3q7C8kKHyNHNDersLyQofI0c0TSEAQversLyQofI0c0N6uwvJCh8jRzRNIQBC96uwvJCh8jRzQ3q7C8kKHyNHNE0iOXxc6LWpcs8mUdn56dmm5GSlGlBJffXnVTrHYkYCiVHgAMAa7ersLyQofI0c0N6uwvJCh8jRzRF7rum4XDbsvPUyct+dRcshLv7jMbqxNsOBZKUOhKddOzCklIwcR8p+kZqlUGmsycu9OVGoTlQ3JNXqqG0obZmVIWpb6hsTrEJQgJJxgcCSYAlO9XYXkhQ+Ro5ob1dheSFD5GjmjRM6WRO0imPUmhuz1Tm6m7R3JNubb1WZlDZWfzoylSMAHXH6pzjOyNZdekK4XLdebkKOKdX5CuyVNnpYzqFJ1XVtqTqO6mClxK0pzqgp1icbNoEw3q7C8kKHyNHNDersLyQofI0c0TBhTimW1PIDbhSCpAVrBJ4xnj+WOyAIXvV2F5IUPkaOaG9XYXkhQ+Ro5omkIAhe9XYXkhQ+Ro5ob1dheSFD5GjmiaQgCF71dheSFD5GjmhvV2F5IUPkaOaJpCAIhK6NLIlXg7L2lQ0OJ4FdRNnH9xEsYZaYaS0w2htpAwlCEhIA8wEc4QAhCEAIQhACEIQAhCEAIQhACNBXbMtmvu7rWqBS5579pMSqFr/+ojMb+EAQversLyQofI0c0N6uwvJCh8jRzRNIQBC96uwvJCh8jRzQ3q7C8kKHyNHNE0hAEL3q7C8kKHyNHNDersLyQofI0c0TSEAQversLyQofI0c0N6uwvJCh8jRzRNI0V73GzaVp1KuzUu/MsyTW6FpgZUraAPkGSMniGSeCANRvV2F5IUPkaOaG9XYXkhQ+Ro5o1svpM6ltasV64KU3L0+RZQ81M02eRPsTWurVShtxIT2+sUpwQB2wOcRiSOlhITUm6xTZSWnJamv1RhuTqjU4h5DKcrbUpIGo4Mp2YIIJIJwYA3u9XYXkhQ+Ro5ob1dheSFD5GjmjX2ppEnqrVqHLVm2naPK15hx+mTCptLxd1W0uaq0pSNzUUFSgCT7UxgvaXGFyEg7T6cw4/U5maTICZqCJdl2WYXqGYW4odolRxqpwonI4s4A329XYXkhQ+Ro5ob1dheSFD5GjmjQb7RmaFITNJoDs/VZmqLoy5Fqcb1W5lLZc2PYKVNkAHXHEc4yCIsmmPTT9Olnp+WEpNrbSp6XS6HA0sjakLAGtg7M42wBFd6uwvJCh8jRzQ3q7C8kKHyNHNE0hAEL3q7C8kKHyNHNDersLyQofI0c0TSEAQversLyQofI0c0N6uwvJCh8jRzRNIQBC96uwvJCh8jRzQ3q7C8kKHyNHNE0hAEOY0YWMw6l1q0aEFpOQTJNnH9xEtlmGZZhDMs02yygYS22kJSkd4AcEdkIAQhCAEIoPfkuDwOleqc6cN+S4PA6V6pzpwBfkIoPfkuDwOleqc6cN+S4PA6V6pzpwBfkIoPfkuDwOleqc6cN+S4PA6V6pzpwBfkIoPfkuDwOleqc6cN+S4PA6V6pzpwBfkIoPfkuDwOleqc6cN+S4PA6V6pzpwBfkRm/LZcuWnSPUc2JOp02dbqMk+tBWhLyMjC0ggqQUqUkgEHbkcEVTvyXB4HSvVOdOG/JcHgdK9U504AmU1ZNyVl6Rnbhr8q5NMViTqIlZdhQlmGmAoFtoE62usqJUtRPEAABGue0VzbMlSnpSYo85U6e9PHcqnI7vKzDMzMF4oUM6yVJJBC0+cEEGI9vyXB4HSvVOdOG/JcHgdK9U504Am9KsCel+xp2cqUkp+m1N2outysimXYAWytsMtITwJSFDtlFSjjaduB13Do7nagq535OpS7M3UqnJVSVLrBWhpcsloBLgBBUFFrixjPHEM35Lg8DpXqnOnDfkuDwOleqc6cAXvK7t1M11UWzMag3QtghBVjbqg7QM8EdsUHvyXB4HSvVOdOG/JcHgdK9U504AvyEUHvyXB4HSvVOdOG/JcHgdK9U504AvyEUHvyXB4HSvVOdOG/JcHgdK9U504AvyEUHvyXB4HSvVOdOG/JcHgdK9U504AvyEUHvyXB4HSvVOdOG/JcHgdK9U504AvyEUHvyXB4HSvVOdOG/JcHgdK9U504AvyEUHvyXB4HSvVOdOG/JcHgdK9U504AvyEUHvyXB4HSvVOdOG/JcHgdK9U504AvyEUHvyXB4HSvVOdOG/JcHgdK9U504AvyEUHvyXB4HSvVOdOG/JcHgdK9U504AvyEUHvyXB4HSvVOdOG/JcHgdK9U504AvyEUHvyXB4HSvVOdOG/JcHgdK9U504AvyEUHvyXB4HSvVOdOG/JcHgdK9U504AvyEUHvyXB4HSvVOdOG/JcHgdK9U504AvyNXc8hO1OhTcnSqkqlzziRuM2lpLu5qBB2oVsUk4wRxgng4YpffkuDwOleqc6cN+S4PA6V6pzpwBumND66gxcPXl+lUzrrKNS3UlBlCxLJcbd3VEwtCiddzXAHENXIOc5jOlNHdXekK4xUHrbkeraW/Tmm6RSgwlS3EFO7OKJKyRn2iSBtPDEX35Lg8DpXqnOnDfkuDwOleqc6cAT+6rGm6vo9pVEkKr1BWaWmXVKVJCCdydbTqKUE5/WQVpxn9bzRiXNo0ael7bXb6aZu9ClTItS1WlRMy8wwUpGqse2SoFCVBaduc5BBiF78lweB0r1TnThvyXB4HSvVOdOAJtS7An2EW8ucqMiX6dVnKo63KSKZdhIUytoMtITwJSFDtllSjg5PABY0UHvyXB4HSvVOdOG/JcHgdK9U504AvyEUHvyXB4HSvVOdOG/JcHgdK9U504AvyEUErTLcII/4Ok+qc6cfN+a4fA6T6pzpwBf0IoHfmuHwOk+qc6cN+a4fA6T6pzpwBf0IoHfmuHwOk+qc6cN+a4fA6T6pzpwBf0IoHfmuHwOk+qc6cN+a4fA6T6pzpwBf0IoHfmuHwOk+qc6cIA//Z;" vertex="1" parent="1">
          <mxGeometry x="297" y="159" width="505.3" height="321" as="geometry" />
        </mxCell>
        <mxCell id="X91n1EuSpCg4O8vg80DY-5" value="" style="shape=image;verticalLabelPosition=bottom;labelBackgroundColor=default;verticalAlign=top;aspect=fixed;imageAspect=0;image=data:image/png,iVBORw0KGgoAAAANSUhEUgAAAKkAAAA3CAYAAAB3uWocAAABQ2lDQ1BJQ0MgUHJvZmlsZQAAKJFjYGASSCwoyGFhYGDIzSspCnJ3UoiIjFJgf8bAwSDBwMUgwyCbmFxc4BgQ4ANUwgCjUcG3awyMIPqyLsisWu5Jr5RWHPoS4n5zHffie/GY6lEAV0pqcTKQ/gPESckFRSUMDIwJQLZyeUkBiN0CZIsUAR0FZM8AsdMh7DUgdhKEfQCsJiTIGci+AmQLJGckpgDZT4BsnSQk8XQkNtReEOAwNnU2MzQIJOBU0kFJakUJiHbOL6gsykzPKFFwBIZQqoJnXrKejoKRgZERAwMovCGqPweBw5FRbB9CLH8JA4PFNwYG5okIsaQpDAzb2xgYJG4hxFTmMTDwA8Nq26GCxKJEuAMYv7EUpxkbQdg89gwMrHf///+swcDAPpGB4e/E//9/L/7//+9ioPm3GRgOVAIAvy9gBZE/AuMAAAA4ZVhJZk1NACoAAAAIAAGHaQAEAAAAAQAAABoAAAAAAAKgAgAEAAAAAQAAAKmgAwAEAAAAAQAAADcAAAAAhrREbgAAMu5JREFUeAHtnQeUZFd557/KXdWpOofpycPMaJQliyQQIAECI3JYwyJjYUAIgfGyBg7JrAWsfZwWYwO2MWAQaI0INkEIYdkSQgLlHCZqZjTdPT3Tuborp/3976tXXd09QZpwzh4zb051vbrv3vvu/e7/fvm9CVjbUNXKVbNA0I7poKnpc+r4zaXA8ax/IGAWipoVS3zTUZXvYNVWdHXal7/8j3bpK55nYatUrbV3lZUDYQ9stKmDrvH8CEvg4H08Az1C36cu/f9PAcHkWI+qBa0aili5XLKmkHBasMmD+2xkeMzuuuc+yxaKFujf/MLqH37mH2w6XaRi2YLBoPsOgPBQKGSlUsl0fuo4RYFDUgDmdDzoqNK6ghQPWNliALQ3GbcfXvcVu+XG78Ndi9bc1mJhITlTDNp8ETSXgjWQ0ghgeoANHBGkVUYoJqrvU8dvHgXcsh8HUD3swBCrVStUzJqLZrkyvQaR7KAzHI15IM0WAwA1DNeswj3DcFJ2hwOpOKnK4MOHOQTOCp9TID0Mgf6rFx8HQD3SOJijhlYtApDSxarlUUEdfw6HLByJoJMCxkoAMIrhBqpwxSC/VRwAeCFXZnwf7vBBKqCeOn7zKABMnCg91uWXuA84ox0cGiqnMOfYq/sDHuGmOgWX3kc/grXb6csv98soWnaoHp9aq2WXTxX816aAv+7+9zOeLSgvw+kCiPdAIIKU59vhDdlfRaSjqzqTvsKPquOcFSe2K1ygmZgsvysgHLfA4Q6H8sNdPFX+G0GB48CAJHexVDHnXAJvQQCqj2OQEC+EO8qBVJaV2wn4qFBh+XggtarQDECrR/ahoiWcOn5DKeBww9z972dKhkBVeJM6qR4Q7g5zcFBx0WAFwe5AKo6pCqDZ3Qktge+lnyPfXHx3+bG47GhI9q8vbtXYq1+jsezw54fvZ3kbv653B7Rxqkhb0uHf1SsVMf0rPmG9OrV6EM7vxTVf9qfWGkNh4dCd/DEslB76bKGeevDH2jhOv91CTb/k0N+NIzl0jSOXuvscYyfCXhjDPFRztpdhitUyJn7ZE/cB6IROyjTdDVRLJz7XFHhBuWOTR5ou15xpv7jO4l/q15uFK/dOF2aOSrFwqMZC64ZWrnRp04V2S8/oow6Ypdcafy+Azp2xk6XCu492dW3calFFwXfOZ2jknWucUDAAUV09r6+Fa6rvHd6M1C/1dQ9XoKucwE0W6M6p6Ok1qLf3etFfXahd5KzKWINOHfNp6F13NfybN9RXDzr867qV//GuPLO/vhR1/T2zpq52ACkdBGeVUtFKISQ4cj8sDOJVktQPcx1xr4nWbuGDzf9Wef38cCNQWwG71kdjtTqRdFL/0ViDVpS7e/jF6seV1rr0fvtXD/Vdq73skjbfoXn8QlXp4gsA8cfoj2mhtaORxlmv789ZO171GIW7Rh1XzwN0bRLMskZlB3zdkyvudjqvtXGl7gqMgzKvWr104aTxgs79j9fW68+v3XDN0cMvr3WvMlVZxNkX6hz9jMYi19ErHqYGlFPjWgfetPmBlhml6wAFDqSHaX1cxbqnm7zrRVTwjtpYlgxq4XqNdK6yt6wL1+qbiat+PwKoB1K/pHYj96W2C+0br9TP62AQsfw71AAHhxO4vENlOhMcObwdoBOFml2pgOUMUH65c9VrONSy/s+18S569/A5oVemeurjSKPXyKhVm6Jf0/v2runcL9epq13bHA00dNJDLY7t8Kl2bK2P3uqkgVS3XjztBmLp4qKfyxfDm7hHVFX3GniN6v3qZ+2HALbscNUPUd5QUXd2vuOGAXn3lkhvqFg/9Qup5UAtkHplPrAqtd3p16w35UR1VH/ZNV9u1itr3Mtq1a/qpH6VqsuBItrVa9RqN/72u9I8dH5kOvm1l33Xulx8r2W1jqvgpIK0cWQeCZYTaXGJ98uvu0C2QxH86GQ9JHAbBqW76R5BdGKPyP59dMX/NDRoWEhv+ywsjcSSawNAxVkXxt7Y3u8VkPoV1EyH/9v75f5KLz70Rmmo5Jr6nfjfur703PvtbrMg4rxZ1jbb4l6f3i/xBk/NeXr1j6XWCQTpUiovEGnplcMOtGHCjW3cud9d7UIdHqy2099Ebr9Oww3qYKiXNfbsFTow09a/4gPWh5RXq/GqzlWLj1/sLbfXyaJx1CvUR+DdyKvkX/W/l1Sq/1y4j1/ktVgOkEU39yu7b/8e3rdfT7907v9e1ORp/DjWdk+j61qVEwRSf/pLb9wwAZ0eSiTXobG07WF+08/iuwkqGDGOOyy+oh7Eidwo3Fosvr64qA57WtHnsvt4/QgsDpxuFH5/CiW7u7hBu1L/pn6V2mVHgnrfXqGnx7qm7o/6945aI34cfh4LdWqNDvnl97j8oj8bGYLHejy9MRxr7ycApP70lw7UL28AySFH6XEkd4kuRDK19HvTVZ1XfYDXweD17/31XT365ZWov4U+OK+zIr9UNTgod7ol/ftAcCOgG+9WC/15m8wfr9fOB5hquXG6TvWn1m7J7VRpcV1mzI3Uqw7Xh5urX+KK+XOY/mqXF25Tq1crX+jFL/dr+r/pWbFzn77+7Z7ut+tuoa+n2+yZ1Due7VO/j8ucws+l1L6meNyVFwt5Uv+KBK3KFiGbJTufYgEWfJDxeIzrOctn5ywajTpAzKdmXPJra1sbfVQtl0m79jpXP0EWU3UjxHfL5BqWCgXaEVbD8gk1JSxfok6kydKZHMnecQvH4lbiWjAcIWgWtkKxbPGWNsuTSCtjKRyJgQpSFbmPxq0+BcwQDrrWloQVc2kr5bMWxdNcKebh1xVrikWtmM/xHXPtIpEo92UcEZJ0sJKLOKIDETyXFeZOprk+2XzaglHKcFSHmxSfDrk24aaYVSQESPotkVWhj86DjItIoZuPbP4QmUAVBizARWJNbtzhcBRacT/GrPG0tbZZIZtxG040yszPuew1jbMC7eQw11YIMxeFHZVkHNS8AKfuq/h5GJpF4y0o6dBLPnIy5lUegqb69s8X/Q7H3LjqYDgJJycApAEvMTroJUjPz6WsVCxYPNFsbe1t1sRCFPIZFjVi7W2tFqiULD07aeVCxtpbm21oaIXNz04RZSjb+o2bLZFI2MjeJx1Bu3t6HSjk1I1GYPqEyjJzswA7bYnmhLXSnwAVBoRK2I43t3qpXeQgiifNa6EAdEELCaAjlO99cofF4wnAHrN8LuM2QkdXj81MT1usqcnjqoxx+uB+qxZztnpo0Mr5eRsa6GfsRUunpt3iF/J5U7sMwAgDCnmeFT1uTSa5zmYCjCXAW6SPVugQT7B5MdCy2XnLFbKAQG74CmMrOPrFBD7GmqU/faL8bm5uYdMEmG/WLb1Chtr4o0/t5jeAo35XZ5d1dXXb2L49lmCj6UMl6+7pIaJdBKwpB8yCNhtgLxZy9ElaXFQJHVXmTL4mG00bIJ3JQLN5B9wQmyDAmmoji36RqLc5MoxFH5WrTNdO9nECxL04EiCpQEAGLLEsblSC85RZoAqZ/QLTzNS4paYOuF3d3ZVkTat2cPhJS3Z2W1yclEUeG4bQLExPd7cVAFUBMM7OzLDISbhm3nGTGAQNwAHKEDtP32U4TDTeaun0vOO2Wjgthrh3XgCCu4sLx1k8AbqbvtvJ9k4D4CjcLxKGY9JPSAvF2LOZebhSi0USMWtj3NNjey0MaPfv3eYidb2DKy2by9vk5KR1xZsdRy4zNhilW3RtyOnJcUt2dNC3eAAcFDpk0mwu2iUBlUAhMAjE2hhCtzaMgCdOLWAW+V2CjjFoE2Rzal46F8ePhddYlvlmoQ8yxUJIA4E1ALechc46RDPNl4auz0Iu6zioaBKknuZaYc2q4TJAQ0IgiXSUJP3YDBnooMPfPAXorUN01FFgzjoi4vLlgjs/WX+On5NCBwFUj5lIp0u0tMBBASEEUqgrHkc8Ijab2LnxWBjumbAWyh741X/ajd/5mu3d/pitXrPaDo4O27f+7BN284+/Zz1wASeW6E/nRTgPuHTcOAyXCkJEgVwgiPJR/0mA19nRbs1NUbK8y5aembAWgNaZbLMIHIxbWyGTsr7uTnvozltteNcTlmBMSGZvIyQ7IXzRLay4fSRYtvzcpN38r9fa1//4avv2p99vv775x0wWzidJwWaS8sKKW0tLqwkErBYbomQJuJMbI+OMCCioADHA0g74wzW66FvSo8xmLgI2SZW2FtST3LwV5mcdjUSnfHrGKkidRCxkc2zyXzGGqqQQdft7uuy6L/+F/dPnPoIEAKyAPAJ9Ojs7kE7TjpOKqxbhoip36gpqVguqjKRShMnnoV0zZdwEKTWNepOx5kSTdUC3mNQWVJUCKpnK9Mmx2fTxfxcYrzbXyTyOH6SMTjtS4kk6aQYOkUNsVCAOKwbxKpbPzLFIHphyiMuWprAjeG734yS6FFmAKJwhxTaGe7KDHVGpLz22pB1MX4l4E5wkAoFSTj1QWQwVgKgv3AT9qpyz+cn9Vs6lLB4GlAE4eCxo0/t3WyxYsnxqwtriYdt6/x122/VfsezMAetoiaJ6TDhuJn1VqkFrKyoJQAyW8nbvbTfZnntusa7Va+20iy6xjRs3sAkibl7SRdVG+lwEPbIKwJvgKiE4ezugBclWTM9ZSfNhHgnG2ox+ODcxbjMHxwAv+jv3q6JPIofchqgAhhbA2NKEpMjM0G7K4qGKdbWhbzP+H33jb+2eG6+nTcqCRTY+c8wzD4jpNggkszBcOMy+kA4tG0CbOs8YtKnnob24coVNpo0fg+4IHJufOYhqk2FjwEiIRebYnGn6DVby1pqgDrkJubkJyzOeGNke+uhcZaQoc5+TC9ITIu4lLlvaOwBaxdLopBK1rSjyVS02REl0dcJFozYzmXf6lha6u6tDiiZcJ2LTEwds5cqV9q5P/7kD+uzUhGSn457iTINDQzY/N+c268DgAHoeOuP0lKUgfhwdtqOt2RkKLfTVjO4n/a/IYscBdqCASIQrZliEjWtPg3t/1Sw1bhvWrrKeZIuNsqLhtnabmJyxZGucDTZrbYB7w+o1cNFhHgbL2uvf+Ga78CUvs4cfewKVZZwNk7SpuSx55BXrGxiy8eFd1t/bZx2I+L07tzPWPFy9k4SJICpDm9vEEu9SPfq60RVd9nkVlQMuhrgPMkeBKY4UaGLMNLAc3FUqjiQSmqQle+COOx9CVLXa6Zs22L69u1FF9tt7/vCjGI4hVJg2m4V7ijNLvVm1Zg0kDFoO3Vm2gZi+aIaUZ41mID1ShHXq7u6yIoajWzPoIDVgahJA5iRV2IRs+haNiUOivanJE/c5JIeMNqW35LDyMF1dnZPx57hBqj0ko0WDrsA121koLVYagh0Y3o10zCKy5pweuGb1Kku29FoW42cWYEKB2o6X6Am7HR9l0Qr5gjVheA2uGLLU7Izt2vqYjQ7vo/+yrV73LICxwnHWEm1kKGThJAeH99o5512AATRljz52n9M5ezG8NmzcBPDmLdoSs20P32OzPC4LGmz0ya2I1RnrWbXR5lgYeQDKbDZx6CoZOI8/eK9TGWCTdnBkjz16353W1tVvv777AevfcCZPMfbayNgEoEK3xciYPjBmo7u2WxLDKYZRFgWQu7Y9YVvOPMst/F7OtZk7unqtq3fA6Y8laBZHBQiRNylpMj0xag/ueIIhFG0V3Luvr8+NaWxkP0ZUsxu3wd3uuvVn1t8/YAMAd2p6zlLzeUthxEiidXZ2Op1dxufMzLRTZTq6e/EKxGxgxUoMuiabnpq0FgC5/YlHUIkStmXLZnvgrtttCi7fnuywTuqvXrvOgXzn9q1wzi5naE4dPGBP7d7lcLhq7Xrr7Oq2LEDFTDwZ2Kz3edwg1RZtQ5+Tu0j6VC86X2F23H75k+/ZdsQlCo0sK7f4Wy55lV1y6SvRv1rRi3B1sCtL0ifRoR555CH7yRf/1M64+DJ7/e9daQfgElNje3i09Ue24+7bnYhF8bW7cZFs/K0L7eJXvsb6B1dB2DEb3vaQ3fRv19m2B8+xA6P7LDWyl/psHzZP/7O22OVXXo39ELJrv/R3NoXVjoluN33rH8y6++zKD/+pFeD4ra1Jy80etKH+QRt78mH79v/5tBkiVyD90fe/SV9Ve+tVH7WfI3KTmy6wd3/sz60gTMO5ujqS9s2/+YLNbr3P3vHHf2krN51pD937a/vZ1//SDl78CtsJQFMHDxq+KCchVp1znl366jdad8cKhli0lX1J+961/2j3/eoXcG6MEL0ogfGve85F9tbL32klxP0Xr/kjaEl7uNl3/vaz9uyXv8befsWV9rlPf4Tyil318T+zOBwTDcIeu+dOu/Fa5ocqhQ7jOLP1rbA3/87v29pnbUQTSbOJi3bLv33LPaW54/Qz7dG7bzOIQ/8ArqMbyfFyu/Cil9ialX3UL9m//t+v2J5776gBB7bMsfqCF9ir3/ou9HFo7RXVrj/zL9kzYniNh8p0HDdI1U9mLo1+iOjoTFoiWLTvXvsF23P/7Ta45Vx78W+/3po7+ux7133DHv+PG1nYir3zXVfCzDzlXW4ezAfWhIVBtAYRL7nCnCXaYvbv137TdtzyUxs67Wx77eXvtgOg4taf/tC2//pnFsxM2Rvf/1HEadyagyxsetx23P5ja1u32d7y7qsdqH59y7/bPgGYDfPff//ddtmb3gKYv29jcOoXvhKQwA0CWOgliFzN5tBNE3CfGfyrMbvqk5+z67/2BZt88nF7xZvfaus2nmYp3k0gqRao8o1BkWaDdGBVSxxX8rNcK1hztGjzOXRR9EUGafff9E1LDKyxN151tU3nQnbnz35gTz34c7s/mrbXXf1ZywOAW/7t6/bAL3/IfVvsde94n3tZxyMPPWj3YrT93cFRu/oDf2Bvg2bXffmv4IQxe8vb32cRPBpF6f1iAoy9NVq21oF2+48bfmK3/tNXYADN9rJ3XGndGKU7nnjc7r3+G/bdz19jf3TNX9ma1X02ASBLqTF05qw9OrLTXgDY+gcGbfe2R+0+xnjHd/7JLjj3LDh2v333W9cB0FvsvEsuszPO+S33mPEtP7/Rdt91q/2I/M83v+ejNjWbdZ4RgSoEU5KHQqrD0Y5FNWpAdWXo1z5wjxukgr/EmzgiKrlNzu63PQ/faQlE/hXveo9VQvjZgnG74gMftb/+4w/bzh3bYBToiOhohthPsvvFTdIplH90so6WJiz6Drvppz+yx+682c573oV25fs+aGWs6ehs2q780Iftx1/4C3v4/jtsx2MP2JnnngdA0g40vZvPsLe+5wO2gjeyFNM5aweAX9n+iD1836/sNW95i5117rn2wJ2/sjEWbf2G02zT8y+0h7butHB8AFUCqkAkEVeqRrIVfRmROIlBuH7TZluzboNt37EHyuFAZ67Yvc5TUEGfdJ53DDcrs8lkbCDyg+iY6CHW0tlm73jPVbb67AstE+mx7vaE/eSv77Zdj95lB0b2WCjWbD//8fW0zdm7P/gJ23DOhTZTCFoLc9i1c6dND++0GZjAWagy10kVQjq84MUvtQNTs/bUKAZYoo25ou/yYoXxA3vt1u9+XbvIPvSHn7RVz7/Ado0N26Ytb7C1fYDtc39iP4RjX/YH74X7N1svuvxB1JTL3v8x23z+c7Hym2zd2jU2dWDYdt9zG2rOU9bb2W733Xoj3Lhsl//u7+G9abPpmVlbseLddi20kBoxOX6QbUqQBRyIflL/5AGRTiz3pNSQIx0Cpf9x9cT5dNS+jx+k9CXf2sDgEGJ+xB66727AlgBcFzkf20w6a5NYtz1Da+0NV1xF9Cbk9BuNIZzscp6AOBNphkPILTKH60guoDn5+/AVtre32jjcZPvwiE3yNOFZ55zv3CMosLZv51Z7znMhLoRzrqD2TusdWGljI2MkzEZsI6B14gvre3x8nHtH8Nm2O5E5i742n8KjwKFNonhOiYUO8JFqEMdAicbE7bG0cVhiXlGO2kIgIIK/soz1r4iZDJw2OGATZXPoplkAVYXjh5RtT9v167fYujWb7ckdu83ay7YSOih6NDM9gzSJ2/6JacaTsDUbz7DTLniRbd2938bnC9YzuNpe9btXoyaMWjHUZAdTSIsweilj2Dk8gSFYseZOdFvaghznbpqZhJvDWTdsPtuGVsAVdzxhUwQPCnw2n7aZemECATsQWPhoEfk5bAX54FatWY9fNOtUtoH+Xmg4ZLtBzTzgl9fmtPOfZ0/cf5d97INX2nNeeImt3rAJOnbYBz/8SZ6TD9jWPQdhRuTTo4cvPZ4ON13aZunvEwJScZdhFPXzz9pkt7OLDKOpF92uxHmQwbcnE7Z/+Cm40Xrn/lBUSpZhCaDI2FLoMY6lL3+iQp6svqVwiKvfu+64xW654V8BPhZmW5fd8A9wLDmx4XaTB0adf1JPG1qcqA6EywGQHAuoJ1zHJybpi2uMoxXvgwIEs0SWCAkxrhAqXs453WfSuFEgcJV+ZNxE4UTirBW9SYO+8vkSFnuWe0lfZIwYbAoElPAYDPR3WyU763yQETZnFa6RniUELOYRlr+xD/dPE56NUZjlhPW1K+QZsBhg7+zstgcf3QoaMta9Yp0dAGQFrjW3d9sIXHJgcNAG2fwp3GjFKvooG54dge7JPQtl1IqiNyYMQwUetj05zGYNWH/fAHOFq0M/+WblnJdLqpsI2cTMOFILg3Ggl/nTHyJZwQW9PSQDXVOpORc2VrhYUagcqtGlr3o9S1K27Q/cZb9AdYI4hjvHXnTpa2zDmRdYc3KlZUQadGZxT7nyxFXFQWWMitbHcxw3SOUjk4U9jqNZrL4F1xMnznpVzHkKIMVauzFM2lnUos3i3uhcvRJjCxcU19s7ulwkRRa4QNqCURWDk4mQXLAzzj7PNm46zWbxQ06j/c3BgTag+65gt6eIFuXSGYAF0RxOO61M3DkEB2xFZ5s+gAcB7sZucda7ojsioBaGP2C3hEuMxQw18xF28XdKTVd+qcvKZ+MECRvCwSLRBDorxh7AdnPG3TU5PgwQctbf0Ypejl8TidLGPMWxAwJ4NUxkSe/YilpXz0qrJLqZQZr1x5OBsZZHJIYAPIqmC+mWGGccFSXLvbsAcB5/834kSztqUIBrbpCEI+fSaaxqJhzGHaTNC8jkQ66wCWVcKRQbjeLaz7Jh03kXpXJBEKkgeBTkJ02yThHAk6NfrVOT5sbsKyiC4vQUQgdyLoiSrYf+V1z1BzY8vM8efuA+e+T+e21mbMQBdvuOXfbqd3yItsT6RURoK+4prio8nIhjOX8+hl61U7vw/43tH3E6C4qKbd+2FcK3AcJO/HeENvHj3fD96+ynfOQmKonDkbgwAbfTrnO/EWXzeAmCiOre/iHHBTduOdNe9fo32fNe+BJ74Ytfbld/6GN2+lnn2tj4Ade3dnqM+xhJJTAXx4kOTky57xixfIFXu156VBbrWuFPVoEcASJUjDlHmLCCFSzdUi4uhRaV+lcEZBVAJpBaQGFbvmU1sYBZghMJolmr2WzNzUS4qJaRAaOxk3AhoDk1DH08EIrbLOI7kyP8KC4v/2MEcMGpBbb+oZVuc2575AEnUVDubQLXXVd7sz1y1y/sBxhvGZzwCmJIAshVpeBIHE6uKBthPccUBKbBodWAttme2reH7j2QRKCp1IrU7Kwd3D+MitBlfUi5+bl5l8AiRjCHipLCDy1ahlg7fSACQgglhzX6xlf/0e65+27rhUO/7Ldfax/65GftvR//rCXw6ux//EGMzSk2Ytn5UKPoqAKpciXESR1TOAZMNTY5ISBVNtIcnE/idP1pZzjO9cjtt9ro/jE4yIDjhprErv+8wcYfusuFFCMQTqI40daJk5kAAKISGegcw3m4xOYzfotFidl3v/svdv/Djzrdq6Wt2x7m/Etf/Lxd/62v2pO7d7Mm7XAlpoSViUvc+TLjrbjBBE4Ag6x24ImiHkQBT0HuHbhyAa4nrqHwphzmiqNL2ReTlagvFCC0uBWO8iogzQIyMTNjvCmkwyP4UVcB0r7+Hrv9Fz9nkbD44bEZgKhqMg5JfbIqOmMCkV+s8JZNxqdxlZkXSECfK1g77rcwwDm4Z5tN7Ntpm9ettGefe7oVZkbt/l/eYOkd91sgP2eDGJMudEmELBmP4LbqQu1B2kyN8Y0vukygAD22c2id7d/9pD26bZslu/psxap1OPO77d577uHGZhsRz4mWTsYXcJ4WvRu0ic0cIQNKGzjCGij7SSCVgNI4773tZvvBdf/MOs0yzypr2meXvPxVjlbi7hLx4pzKqtLh66HipCeCm8IDjvdQ+hfiCa40R6hM2UIvfcf77ebrv26f/8SHbMtFL7coFuiDN6JXQozL3vkBHMlJEjSw5hHJqfkcmWEJ1hOjAOW9AEAmp9P2rNPPt2df+ia7+6bv2V/86Wfs7Oe/lMhQn913+81mB3bb6Re9zDacfi40RuSLmol2m03N23QKSx9wprDuWzFmTMYPAC7Tr14x2ItvVcbHd/75763njtvs0re906LNOMLhshX6CcAWQ4g5eACglMjmjYMoXHmu9Q6ssrOe8yJ7+OYf2re/+kU7+4Ln2ui+XTbyKADQgsLRC7R1IBUrBaiz87hm6CfPhkiwUbLo4UVcRvK7FlnEjvZ2e9fV/9P+/nMfs2v/8k/snrvuwshcY7+87T/N9u+zC9/0dmcEKVmnraefYNmYff5/f8rOfe6L7A1vu8IT94x5NktYNl+1113+XvvaNZ+yr//Nn9kAFvs6fKAKTEzD8QbPON9e+tr/ZgeJroVlA8ApJWlKjE36p3T7OfRjcVSl6ylxJwJnfvHr3m63/stX7fOf+iN77m+/AQ5Zta2P3G9Zwrtrnn2xS5qRdS/uqY/UPRmXOk7Eq0NDiZ61/+vsF74KaxE6c3NlI2knaAdod4hlH2k3SOtQooRCeMrS0SExmsTKnkac7bvnDhsjEmMDq+0Vb7nCieoUonf/yDCir2B97Pz+NZtscmra9hE1Wo0jvGvFs9i1c3b2eedbFK745PCwHdj6BKLlcdJ7Ou05L7/MngNII81dAJP0MgyVEaIhq888z1Zv3GITY0ROWuE8AOexJx61FqIzQ2vXk6ASx5fbY/sPTNgsAMhA0NOee5Hj4uKgLuLEdzOqQBoRmMZQGQNU5+K0hhiO8N24crJwj7Edj9voo/ezqCl7HX7ZBFEkpLqd9fyLHUfPSp8cHbEV+G171mzBDYe+i+43T7x7emLY2jCI+jed4/ykfbishlavtzk49y6Mk6cQ/UHG/6LX/Y49HzVH6pJCkn1ssLHxSZsd3md99NsJaMfxDmij9q5+loVRa2IYkBu3nI83IA3dt9k+IkY51Kv+s55nb3/XB8lvJQMLCZbNFxHTZFKh/66Hu7Z19Dj9XNlWk0SeDnDPwZVrrX/FKlu7YZOlAfToxIQNE/0bwZeq9MHTYUBv+t332rRCxGw6h5uamqFzH0cOFIf9ow2CGsVuCeLvbiNvYQ+RwVE8EyEM2GYSbwLdp11cvfzjX7IJMsVkwblEWCYhYIYwYBRtOBpI4yj+OdwVeSJOsnpbyXSK8F1EnGmxcrkc+Y39zvGt8KYs+BbErMJs3eie8vkpPzQ9M0KdbjaM53tbuaKbkCOhdgiWQ04WKjEX2+5oQVeij/kc4hUgxaUqImmmcAvJcm5noYIkfwS5fwtjKUUIu5JLN/7UXuL1nc5llGeO20f3WRt6ljhwApdTGPCVlQmFTpoA0PpdwlBScobmBjlcfzirCDdOokmQpIEBFYygk9PPXlxDsThehHzF2pAaM6N7WeS1NsO7X7MMEKZsBI+sOLkDlYLQ78AGADtlg3DyKLqlkoqVkK0PLN0lvsTQ8ZTqV8AdJ5rJI+GnL8oqn5yYdEZXC+63kfH9Th9eA0NQfuwoXHceg7R/xUr8txX8x4M2OvIUY+FltQMDlpmaQqcmb4FN3oxnZGriIPSXWkFuBGFrZaApKaWKgTk4uMJ5Lob34mmAroPkWiiNb5y1KwRIGMeOOJZD+j/eVoBaZE3nbUV72G751hftnht+QGi5zDh77YRw0pKICgdyLzwVN9Vi81s6n1xQMRkS7CwlWUxi3QfRc0IYSwKH0+HQ3XJwtRZ8olID87wrNYyTe56UtSLtcGIQYcHF1NyD5I6gFaRsJjXLAhCrkkiGqC2kBxZ0X8RWokmpc3mCQhky8ZttHAs5hwumzIbLKzSJnqnXrxfhTnkGGsE4CPJbkkSuMeUOyNJGrDixqFREJSfnZTlrAzN+6W7K8o+iSysjPyTrONZO5GXeWbnSc5OMSUbkKK6lAAsqgwuTDMu9DR0bz0e6wLi0AeBsvMC4UCV/AIs9GGt1emsWvXEOQyuPATeXLaMexJxfsinZaxU8G3JZ9SKJ0tSpMKYcG1O5oZIAOm8jT6BvxWqnS2cwLFMYSxl0dG4JJ4UWWJp6YiEDrSA74yBHl+sCfxteFxRSkk0mmWMzEiPtNk+C8LE+WaRgGloGMQJL7D6B7diOo3PSE6CTohzD4gVGWC62EGlnTEDWMuvkht4MUNJEl/SYSRLCKcFW4qYCONtQ7meIJCnEVwCQaYBVwQgQZyvgcMYt7vREaEpkCfcJ/QZ4ZjgESBKhdnzRvGS1krP9+/FDkoQRgqAzqBMJXE9apHH8rQHyMgNw3p6BTktPzfAedu4F0CNExbR5gnC5EsDUYxYxDIhIsxJ5yUlFCkzPoNtiRccApIBXBqxaHHk0mK72I4ZV2HbvHrZKjERnANZC3mUel1Qph4srj+Ms0eMMNMwzvAkzcHy5n9hEgQQcrJs0QxlugJD7V5EYQean181UmZsImMPXGOsYBDMkcuNjJtTg7IBKJIdKpUdX4m6zJVo6aMtcYBqSgGVoOQOXbMInq8dppB+2dPZCzwCiHdEJ/bOAWUYr+5NIGQYVG1HMI8VHL09Odg+6PpWUnaV9UeFrJi4fcpDJk7sPQGl8Eo8TAFKNTu4afTw/G0hhseB+yEf55+ZZMHEeuUOyimwUIADGTQBdag4DR6KtmRzMYhkuBJgCAg2LJk4VULoYlri4mbKTtCFUp4y7SM/0ZOAGzeRAyt+axrrMsTjy+8m/L0u+g8wl7ghwx10kqMwGkjoQ4JpAIMd7AuPKiyjp3Zh4CeCW8kZE8P8mcJLPEZzIw2Gd/s0cFXnSc0QCQoaoTZycy5bWXjhz0rWf5V7N6CmKXMnWD+DLFBdVgrV8tUEQId9yEDHJ1NyGDbOBQyy6HunQBtFHTx0wYzYB/DeDKgNI5F/Whp7B+IlBU3FBqVhZnPDSWzU2QUbhSj0VUQSwYdQdMQil7VXQJTUP+Yjl2RBtQ9A0i/tMdaJaJ9Q3Xc+xVmISOYwpjTsCnZWRr/ibPCUS+7MzqAryjZ/E44SAVADSy83kMNTuE5Hk2M4QflOkQ9n5Wnz+OCL4D3lV2cVz7PZW+TnhTHNwiRiAEaeVpS3wy6caY0FDiDolGut9qe7pRriNgBJmgTJkXcXlFAe8QfJDQ4jHKiIwgxUtER1qw5eJ2JWl6q7BpQpwsyD6axP3DkmhJblYbqQCHN49RMcmcK4pRHALHNdtRJBfcfq66qOyAKgIbeGvLDSAx3ByzzbBlfUwnfoTtylAgzQL3Um+KlTCz5lnLKIXHBSg65kr6UsBuJR7BEdjAzh6/kiuoQBSQXqqe2YLLpZjTtKTe3q6nYTSox3KN3AP4wFE6aFBpFEUerX3JwkrjwFIueDYGNrkgF9gdg/hAWQ9rSq7Q7aD25yoYsrTVZBE1r4eeVGesIDbRLlcThnqirl0YDDqkZSTeRw3SAUl5SjqyUVlOMn4kiNZYJX/LRRAVAIcPRCWxmEchegVgCZOGEOkt7Q3WYlJKku9g1zIENZnaR49DQMBRLkggAgYwM8oZarMAhZKOM4BRgSw6TEM5ZeOT48T44brsBlSZDIlMQiSvR14DYiEMUjpwM5Hig5aEZAZh3IhNeaAnPVSooFbkPYJxHWIOiWBFgBM86BgBNCFEI9ldL4ymysQKACCOB6DVhd1yjM2qbFN+DA7OogsVeHfeDfk65Wh2MziKoGjCJKhDm3YzLRpgwbz5LVGuJ8MsxibRXOrKtMKPb1E0rZ0R4nkNp5oUFZ+GMOnKcaDcxMjiGWStEk5VAJ1mlwEiesgGzeEVJnDuFMgQK6vIhtF7wZQgkoIqec9l4ZnGSBDNgxXfMhsLgFVUkxBBxfmhcYKuIhRyLGfR1VC8UJXZx1hTjMzSBI9m+NYE18n4aiBFM7AArkbQTzv0G+di2g6P9zh7UBxSm/CKNFUl36nXSkdNcNu1ANmzWQAiZsqOiJlTv7EDDs0SW7p/DxWJKluoRD+PoAqaz9TmHG7XmJIxhGPzTluGoklWUREYh5jA040BSjlA40CJGWKl+Gwcn84jgNAUoh0PbGp2RRx0mcl6sX5GWgTBk0F3bEJELO3EOt6aA7RB2iku9ENwFP8m+paXMe9qSgfI/fSw4DKQmrFK5EMt3Av8gWCiEQesVA6XQHwKxwMQVy/JQwY5a5GkBipgzzOAUfWk7TixvrAqtkAHsXF6SRh9IRBjk0bJZtMIIzrGSrqKL+hnw06hwojv6Sy5p2CANqVLqextuGTVqZ+JsVzYho75RGnVngiPorLR086yEmvbzdXcVWkUJR68onKry1VQ+d6SlTSpIjEURhUyT3y4aLsHQ4gRynXZKE1tJVkc+/VEoAok00sDsNSCJoMBnDCU/ilb4kwNVSURART+aEPXWGs7pC/FF7nQOr1S0vAECFLyF3RJhRbUySIowhXjPIQmJ5b1zPyPD2jCiwsi8p3kAQN1Ze+q39KBYQ+iHJvU+ndlhLxMlxCcOcK1pV0uCa4A6sNSOG4cJRmwFKBA8qqlegU2FTP7X+JZKhQJMWOGwl3bsFFFWEkCPjBiRuPxiCDSdcckgQqjgiGYZZ7KSbepPcVQre8xkYHVaGJQwEPpb2EADxOCRe4aOKBOEcvNxrp9OikGoDrny/XlHkzXhmKYvZSWwR8VYmRcDNLbF7i2m1+RL1ULk0jD4gkLdIKHHBI1aHYHU6TYh5RB2ruSJ/aIuLArm9qKvpU4T5iEBU4K6ax15gF0LuutLl0yGOigYpJHNvheQaC0CuM6qSPowHdobFwKE7HgPTfk6iq/ulbZaKP19w7V/XDHe5dSg0XvR5qBXTkE8f7Xuhf9/A+lDEGnetwHMV980e7SocQ40jJddeRyr0x61tj0P8FtPTw6rqqDZe8e6FNqOniY+nv+tXDXnA1NBo9pbr4ANY082TG4ituzCyAm92yrmtzrjXRlvLmv7QP0cqbe+OVxa1rVxro69dVPVFCOr6G4I3FG4zfh1dWu1ZrWKep+w0TgUEsxUCt6lG/vJWgGrd1rBFu6srcxvOaw0PER7EAUdqluEtXcokWDNkRHd1IHORIx+JBu/vVq/u4Edbc9D0a1K/rRL0vTLLxbmp05Ht7HdW4m/fj1N9nQAEHUlbAB4ujNmvUSHV/fRvLvMXUjRYY2zO4bb2qHuGTJFzUt4cI6mgDOYnH8GD9qqRntxe+BRb+ubLFXdTv4E4aQVW70gBEbQj91EQb8eZXcT3zY+EONXLVK/s1/e/Fd3e//J1wiEunio5CAX9htFAchwKkvzb+9+IeWZfjoL9cbtoiEuvuu/EmjElXneHkcTkPta6JBlyr4Ok7jS0XD1HwqsFq6QX324dWHXOU+mWqoHNZ7/48dSd3XWOoH40t6oX1k0Nsk/q1UydHpoAoqzX219BfJ0d9Lrr1aFwK6jsg18tU6cjrc6QRePcFoKgMAqpW3/Xm1t8bFyCV0qswoawpsV7EPQNw8XpXrg7qIzrE/XTtSNdroGto6RPCKxK31g0bKiw71bBrhKBeI0lEnyM2XdbXqYJGCjimJAoehoiHLF5WvWF9Gjt/GuceSCXB9d8z6Xux6qbr7n8fKQHGEia6klzd/wSBIu24G24lwsfHDdKlY20EmahzqE3g1WlEoEeIelufeqoCyP2fS+916vfRKAC3gnh1ujZUPyJvamjg0b6hoKGPo50KlMQXcT/JfyybSPqpD1T1jMWv4alQhouH5NpvfnlcSug+GgR0fXmd5SWHGfJi1uoqeUVwds3ddaQTjW0pQeWweNp3cn2f+rOYAlrnY4PYoVZ9cd9H+4VXGwMd/7jpgzsQSC6A1Gsd1hvReLbL+eIKRDakG3h5pIp6gGwFnI84BemTh56iJq/De1ObwpikneEUbsZ5P0ekRI5lpXvJQa0Ys6Iaqqs6KldUSqE4cVo9zCVXnEKwfo6r3vPp7sHGO/pG8sbym/jX5cnWJi46an11aN0UdJHvV4EAhaCTPO6j+LzOV6xchVOfRHQiX3oNpfdqHbLVcOCrjoIeyrnw1v/YGIVaFQlGhHlfV0+ylcijAhr4yfHZ4uylb3zMettddmIvITFFRryYscJnurGbxBF5vqa6BKQNePWHrdi064s8yzKTzqXJC4VYZdLPpkZmeQUPybrqqQhPBKAhHMblDL47xqDkhyjRKhFIAHWxZ+qK05a4XiRMp0iT9x8raDynjqUUaFSnytBMdBNtVa7lVZba3AjRPRhExVI8SBi0JFGz2b0Pk0BCvusQb4rZTeI6h2L66dSwSy5xr4UMzpGcooCBv9qu2tP+w0gI9hA44Nmu6QOTlipnyOklQsmTAzkYqPKGecint6r0LeVJ5gGB3soW4qOQXAPejnDT5bU8NWFxEz1TJFaYIFMnx3mYcyUVyyerjJ8oXFEgVOaPgJjjXIfqZ9i1bHnCfICb0F6e9hqvojh6k7OSlE9x0sX0bvyl95T69CnDNfVmbElHvdlPHyXA6N0H4rKzhHgdcikjscGSPIkwM80TvuQHSKrNki3VCtMRJFNKLKGrsJ6JciWNd3165yXtEkXQGIes+yTJSDM8x0Uygut7xcohCwxtPL86PLzXgYDt5VX2N4UmozJ1dNhD17noV+HnskOhQUDFFiaWhxqsJAV2q9c3tQlnxnlxQVavseH9hU3UUdKu6uhlEgW11UcT0X2Uh6c+2WWuD0f0ZXc9VXA4Cvjr6b5ZE2XGiN4cTTz9qsecXWxVtGb9lRijRGpHe/IMSHBw9BcHLGZJ/VJuxbEeGO08BOf1oTA2OqrASkyb+3kvPQ5fedX77FMf+R8U1NDl/E/U8ycgkNYuHXocXFQwV/WWHn4R4NTLbdOwb5IneQyiyb1sQdXb23lClEczIlWyasj8VIw4xGMiMWLCcuPmsgyYs5ZWsqUAao5nyTU2PWeu/yy1JOL6Y196/1O/PQpoLbXJdbDxlZOro6oy6BdCSiVcojeZbLwBWy/zfdvb3mZDK1faNdd8hneRwmlRC9XOfwO0vEBR1rfI/weqpBit0TEdAilqoMOb+oHTu66cJOVxGtS8/wcK+qG0VwoA5QAAAABJRU5ErkJggg==;" vertex="1" parent="1">
          <mxGeometry x="47" y="180" width="169" height="55" as="geometry" />
        </mxCell>
        <mxCell id="X91n1EuSpCg4O8vg80DY-6" value="" style="shape=image;verticalLabelPosition=bottom;labelBackgroundColor=default;verticalAlign=top;aspect=fixed;imageAspect=0;image=data:image/png,iVBORw0KGgoAAAANSUhEUgAAAKkAAAA2CAYAAAC85bm5AAABQ2lDQ1BJQ0MgUHJvZmlsZQAAKJFjYGASSCwoyGFhYGDIzSspCnJ3UoiIjFJgf8bAwSDBwMUgwyCbmFxc4BgQ4ANUwgCjUcG3awyMIPqyLsisWu5Jr5RWHPoS4n5zHffie/GY6lEAV0pqcTKQ/gPESckFRSUMDIwJQLZyeUkBiN0CZIsUAR0FZM8AsdMh7DUgdhKEfQCsJiTIGci+AmQLJGckpgDZT4BsnSQk8XQkNtReEOAwNnU2MzQIJOBU0kFJakUJiHbOL6gsykzPKFFwBIZQqoJnXrKejoKRgZERAwMovCGqPweBw5FRbB9CLH8JA4PFNwYG5okIsaQpDAzb2xgYJG4hxFTmMTDwA8Nq26GCxKJEuAMYv7EUpxkbQdg89gwMrHf///+swcDAPpGB4e/E//9/L/7//+9ioPm3GRgOVAIAvy9gBZE/AuMAAAA4ZVhJZk1NACoAAAAIAAGHaQAEAAAAAQAAABoAAAAAAAKgAgAEAAAAAQAAAKmgAwAEAAAAAQAAADYAAAAAu9Rt3gAANhlJREFUeAHtnQeYXld559+vl5lvepNGXZbcZBvb2NhyL2BTbAcDATuAMUkILSSk7IbNLptNQiDPZhNCCSVgCBuKzZqYZgNuYONeZFlyUW8jzWh6/XrZ3//c7858Mxq1gWeffbCu/M2999xT3/M/bzvvvQ4kO0+ppHN5s2zOLBS0X+mo/EqlTxR+RVMgwOj5hUNmBfBYl7BL16+32772dVJjiyqhphZramq3fK5oFWU8cZygwP9rCgQCVipXLBaPWik3aRPDfZYCqP/4z58BkQ3LK2+/9UN2/iWvs8GRrJUsurDuge2ySp7A+MLo94ovBXpKBUtEAWt61P7pb/7cMmP9ZsW8ha0iBJvlSwGbLIQAaWRB5KIaK1d/C6rgRKFXNAWCFQ95AcAYAEz8rdKjAkg5iuWyFQBqphSyYsAlHTfBpI6WUGkF1hPHCQocLwWCACdaqTizKADDzCH6QROSWSDlLF0gXyxbKfArgBRwUvcJkB7v7JzI7ygQsqDlxSzBo66d3ghoBVTHNgXaMgmVYMD9FkI3VYfue+I4QYEFUkDYi6AyCqJY+BL3AingBKRCFj8ACi/lV1xgI16dCy58ouArmgLCYwV4luF0Os9wvCpIA6GQBYJBHuYBb2HBxHKMVCz1xHGCAsdNAfAXiIBBgdQhyeOf4DUsxdT0MBjjUVEM9Vc7/PqPEayHGFqzEo7WmdmNHC33sQzMkchVW1M3FXuEqyEglenOPZGqVM1Tmavz1FTjt+/1c77eevV5+eZ77tdwpPM8DVazH71Gb0RHqv1Iz7z6D9/+kcq6kZdLkLOmlwFx1KDEfdFKlYgVSoC0krdgWUrr8R+qu6QJUhu06C519qvy+15NcJ3i2iX7mXTjJlkJelg9z9RSrc2VJkv1XIVQpbKwvqtStRSsyPGBsHFnpTrPL9JFUkaiSLqS2lButS13SUlPnPpUDMqF5z/nMcdczKrLKunVEfBG5hL4E6Aefu6YHrt3qxaPfqiimdpdft3SqCuvJuZU4kjo0lD3BIpDcswpcJhbr1713Wt//myHf+a1XAKQ6mtV5fRAJZCW+RfikZz4QTLMHcb8zc1NlU6hGdF5Vg3z3Luu1mTyys4p5xpQpvkIpxrmJ8hC++/RlrYAqL+ap+vSuDQqLQImsjrlbpzuyfSg1V//5wYw88cNeuZ2Ot/cdAfO2nw+XdS+fz37uX/nFVX7Lqu3ht2NGplpaAaYeujVqTHJP3nkFlz2w/4JuLmaaWdWxrmNznpIq9A9yBL3KF1TB31y1v2c/Au61fCCTJbGqf644epcva6tVF2Y9VNml08AUU5X2kv0Eazk6UOZldcHahU25J0G1nTeY73w24RMPvtzoFSXqqQji99vr8teuseByEX7Ibd4jtymyroxeqhyo1XNFcqqxvmO+QHk1VSbv7a0mws9rLbj8pHBz+OXVstKlem88MOvbZ4aHED9Vud5fpSkXxtI1Y66qYnygemfRQN/COqqMCDs6dr/zSaSMswqUa2dk19CFYioNQTwSvjllPd4Dk0REgVOGXR9YxyubtWhOuevV/ldl/gjHltxC+dY253TY5WdbrNaB32ZyTVPP6p00kkUmXsoTaUEQe/s5fCvdfYO5ZzZ5/FTj/3sLdhD8rsG5uvZ3JzK6Pdq9rNfG0hdEw44XoemAVpt2m/W74bOjqpcePOicnMHw6S5SXC1V6uo5nOFuK626dUnIrurat5jP3ncUD2Qbibd02vn0NqUwzv8qwr5BfFgpejO062Sce6Ipp/Nc+G4qBuP/3D2aGbqmumB68z0gvba85/6tUgyiFwqPy0kqg/VnNeKaDfPIvErOepZrUo1W8gxt8ez6/i1gVTVemCb0+AMZWdadtTybr0yKqx7/ZmvgJ4dLl3PvGNOy37yMZ8FOk2o15JfG6kkeKkuB/XpWW2Kp40pzS+lRlVP7b2fprOe1mDLpUgKzT38haD02U9raubSyzc7R21deq4Sc3P4Uk1PPTVnbo7aWo52rbI1/TpadvdcnZ+vZzOFf60gdU7Ymbq9LqgPc8etNJ7OTvbvdFan9dOpevbuqn/9NJ1navKI7D+bVeCoN67v1aLehHsgdElO/1Wq9/Mq0xPf+ez4KJxUHFiHNxZ/RF6an8pddWXOfX7IWKeliFfD9PjmpItWfl0zV36rOvNU3Z27Krwnrll/zAvnhmqiSkA1Oe/Bc7+j08+PVkZ+0l/bAXmm9bOZSl2fDtOPQ/rrUZLChykwU+2cPH5Nx1JuViXTN94kTd9CS41H9VE3k6sruZpkhbqDZ7rSEy+Fc1WfdWUo4PWq5m+1e76hokpre16ZC6JZC1SFPQgG5qa7cqpJItuv0fVy5s90crUTM09mStB/r281D4/x0tUKNzq0/Zr2XB9q7o+x7uNSIkScYrFgQXanIpGolQkI0L3SA/gIg6GIhSJxoqrMcvmStgbcrwARK6GoBaMJS+fxgYVjFk02uKAWOR5iXJcU50eeUDRpmRxxhalmyxVLRGdBNtUdiblzrC5l2ULBOSvyRUZNmcl0zgLhOCgiYJZ6CqTrp02KYCjG9m+QFw+KFiKP0jPZvMUSDe46HElYnhAwAaRSwssJl4tE2ENmbJl0mkkLePfFnJULWQsH8OWxK1fMTLog8ng8BtIqLkhH/ZziLYcSkWShWNLptgHGGo7X4YdWn+Tug+TBsPOnZqFFmXYjsYR7Ll24zP51njGkswXL0a8g9AxBtwp1iq6qQ3ROpzMWhiZF+pzL5yxRlwSjZQuzGxOClCVFt3MfCYVpkbHhKC8WGANnjS8eT1iIncYi+UrMYYg6S6IBNNPc6ay+u3mkP+qH7otci5ZKl6GpdOUtMFc6SiXGRBvCiJZggTaVJrwcegiwMz+HI2GpdhEynuMCqRoJMhGaQDUcDoetDtDEYkw+g01PpZnwAtHVSatvaIT4ceZDwI2atl7zECMaF5iCNjk5YdlMlj6yeplklRPxNYEhiD8+PgaotE1GrCvPNBn6TUyMky9s9Y3Nrv5QOGrxZL0DSRpQaeIam1tdnhL9VFn1I56oc+0KdG0di2xqatJyOSaNBlSv+gtKLRaN2NT4qCWSCWtsarZkMunuG1L1Fg9D0GLGWhrrbGl3l8VAw+hAHz0sU3/C9SHV1GpaH2Nj40y63srJ2cjwiBuL2lLfMgCsuaUN+jG5GluBNyJcXraloUd9Y4u1dXXTpyY3+cqvfAJVYxNpTHxzS4uVCRLmjyVYKIN9+63MQsqxeOqIaE8m4lYCvIVsxoq5jLuvq6tjYUF7xjc82O8A2gAdk3X1lievAKN2UrypEaQtzWeCZ1Hopz6UGYCu6xubXDpd5m0O+sy/KAstFAlbNBp1iyAIuLQYEomkA2x6aorctccMOGuBWpvDvz4ucS+EqxMCaiaTZhCT3MfcBFUYQIIJLRb8FVtmgrIubxQighc3KeJOJQihlRyjrmwmY5P5vBtMGuAGAb4mQ0QTUZkz1w68CkJEHVHU+fTkpI2NjDhwqQ/ZbJp+xG1yYpQFpPgDrz8jw0NO54rQ1vjosAOLJlmLtbm1lbbYGZ4K2PjIoMUjQSukJ9xkF5hYgaxYYGVjteemxqyONSTQDvTsoPagjabztnTtmVYMJWxwaNRNihavjjDtxclbZgHo0MLWuCZZfFoEY9AkyqRGeKenAJ3KBPsKnFkmfZQ+a3tadJYxJWYQZcJzjDE7UbLJkSEWDPyRtjrbWx1dA0W4PP1Pslj6DvRAu3pbuny5DfT1whCmaMOTfFqkKRacxi3gDR484LhcHYs0SBsHD/a6cThuSB80B3nmZwKaqU9++JFiPcQtA0qUJIHm+RxMgoUrpuONV6CNu/qDQaSVVqk7KOM4aPXWXStt/uO4QKpVJqCKcwqslUrSdSDOaonFKm7llckTDsbhppoE6TjiM3o2ZZUYXK4RrgfnyEyN8zxqDfVJBohYhwjiCIUiooEJCCOmM5NjcJ5m8skgIdYQIiSYhAoiR4RL8D5MLMpGGiCqwKWT1FUkj3YuikxgKMgqdoIV8cVrCHXJuNWlGqy/94DV1dcjvnOWh/PUk14pw+XhlOMslObmdqdfTsHpNQntba02MdjjOM7GJ35u937jXxzHt2STveWP/8Yau1Y6DiwfaYZFpwUojp6dYtExkXWI4hwcTStVbZ60Zi2c7CBTgzoCPctw8LbOLhsZn0RUM3YWowMpzyoqIwAAqDrGXmTxdrY1k6+ESjBh2zZuByRlW7ZyNfNetonRQbvzM5+wVPdye/cH/4x6KtbU2ODAkoNmkh75TNFJuwTjjrBQitC8wAIIFJFQLPQY8xZEoo2zUPv27bL6VMpaW5pZsHB96KwFNd0/2ta9mILeTwrxQAtAIJWEELMJMCapE/MfcwF7aK7jAqmA6fQ0VoomQj91Rhw1zyQ0sHordFDrrQRH0IAYLRMWscZUDN0H/WlqxHHSGKIuGi5bbnIIwntqQJQ0ClkZfayuvs6GxwYhWhgd0NNzMrQTcWtZW2VBa2ppBOxp16c4CyA7PmwJCBwBbBOAJTdRtmQ0ZHF+IpYWQzGNGlvOu/SxsRHHNTKZcWtsaKBtAQFunU+jU9YDIk0GwbjZSWtvbbb9Ozfbvf/x7258F77+RhZdCtFfDzhKjEnikoliQUkTL2azbmGUmMR8KcdYvYWmyZ0Y7LUQtNEedX19yiYZ7/CBPVZiYca5DyGS80gqMQWJ5xhlA+GK5cYHHacKowPWo75khyfsJ9/4tHWtOMnOOP2PLQfrH+gbYjEU0FxQvyZHPZWJOZocH2HBBR1jECPQvdSpJKpSiPnRHAbpZ4oFNTp80Em25lTCxseI50CNyI6lHXNybIehaKOjTH4BPKw5Bht5VD6pdFqYYlzSQyvEg0hN8DY55nLLowNUkD0ukKpAFDCoE9JBBViJsCQiIUl6EoAkYlK88zYpLiLCMuF5wq3FweIJdDDAEoEj1ANoeWKyEbgiE6qg6/TYkNN1cqzgplS7xVev9IhRBvRwxo62JptCzKenMogWjCcAkaOdJJy9vb3NJsaG0TXHEZlT1o7OJjVARFTZ+saUWzRDgwMsGAiI+BGAOxd1wdUGADJ6RTFoKbjmyzt2W0IOegAmaI3C9U47/2zr2/K0GUC5+PU32M233GIHx7LWO5xmohPOgJuC88eoUyJdHKV78RLHBYcOordilEgU63dg36CtWLXahgcOWkM8YqlIiw0MD1sAzpaFXlnoIf24Hrqm4PhRJEsZehciKBmkD6MHt6eWWz0vrdlonzXVnW5LO1ttx74D1tnRYbf+xV/DQJAiqAlO72c5qD+NzS1OAkkVSCyqc+Je9CjBCVNwS3HnuBYEEknSsp45a0nVOUY0OYEahP6bgeOKc0oSJRuYQ7i947DMXz3G7iQSU7jwsAErQWWRuqKzmNRCjuMCqUS2DAStEHEmXadQ7oOs9rGBXtvwzCOO40ARlO9mW3nSGmeU9KLUZyYGrczAWVI2NDhum/fuYbBFO+W0M20RRsLQ4KBFEVfNDHzLCztstL/HTll3hm1+7mkAXIToWLkMVm13LloKl5iCK05YQwLug+738nNPwlmbHAeWTiTM7dqyyXGISYytBvqzbMUqwF/nVJU04E6jG750sMdWnXSy7dm5xYnKxpY2q29dDPdHn4opkhGjCFH30qYNtnv7S8aAAXTYNj7zhKXalzmRvfHJR6yte4W1tLagJw9aUjo4Y3txw6OoJAlbtLgbrloE373Whzpx6qmn29Rwv217nrEx8V2Lum3VyetsOIMoZqypOgACQGWNH9i91Yb6eqyQmbJVq1dba3OTrVrWzcI5YDs2PWuwWQsU0vbYA/dYpLHDWhYts4MH9jlxLsZQQEp1slikhvQzD3t37XTSp3v5KqcitLV3OLCK8xbyU7Zv62Y7dd1ZTv166qF73TzLOF6x6iTGEkcVwcsCTRAdNty7z0ZHYAyMSfDrWL7amjq6HK2nAPXkxKSmG0Ymg0yeEy354z+mQSrd0fNy+SxZKTr8e3RRRINWThpRJB2wEV0nDDt/6hcP2uM/uh1rZhTxTn5Wm7V32bVvvsnWnna61cMttPLGx8bszm/8q428/Dw9R7QzkY+kmuyCK661q6+9AfE+gV6UsWcfvdf2bXrSdl1xjW36yV2Gee7qs/27rePM8+ymW99nqWTIRgaHmMx2692z1X74L39ri896tb39Xe+11oZme+ShB+yeb31JFJJ7wKkdTd0r7Yab32N1y5ehpyVs30vP2T3f/qpdeN3b7LEf0H8p9qkWe8/HPuWkQSwZYXFNWHdbi33pc39n4we28bbiuN1313ftvgfvs9fecLN1LV9rD/7vz9i6q37Lrv3td9q+vTvtrNVn24FdW+2nX/ykWWu7ffRjn7BG9MgXnviFPXz7bdb71lvt8Z9+H38SeirgUB9Xrnu13fCu90EWWcVBpxI8/tD99sJDP6PNCSyYlP0Smq97zcX2gQ9/1H75sx/Z/Xd9mz4X7aWnHnaL6G3v/xiqRtn+47N/Y62rTrHf+/NP4CUBQOjpj9/3I3v6x981i6dot2zPsDg6Tl1nr73uLda98lQbQyJYfsLu/vfP2gssmDAGz47nnnJzhNiy+uVr7M0332odHZ3OLti5fYs9dO/d1vP8kx7d6lCXUI1Ou+o6u+Dya1jk2A6QM4BLTe7DEnMgP7JDkw8th69ZNy5l7p9pkOqBLFa38+Lg6mX1gEs64JTHSqIohb5YZLKCrOAcwHv89s8zuSm7+SN/bnE4wJ5dO+z+279uP/nK/7I1n/qcJaX7wF3/8VN/iW9mxC576ztt+YrVYLRo3/z6F+zxe+6wTrjQurMvoBqMq4aI7csO2aYH7rSVF14CV2iyk04+0x598CfWv+lp5va30d1i1lxXsba6gN15z50oLkE79/xzrKM5afuf32D3fPl/srSb7bpbfs/aQnEb7jlg3//2bfbdL33Kfvfj/wNulbL6EmJ1dMQe+95XLbZ0ja0+db3VNXXZRLYER2iG+LLIg9azc4e945YP2WbA8Og9t9ua11zIdwoutY6uRbbj5ZfNpgYsVphwOmR9W6eNAexwEN5SGEM9wC8JncKlpOVRFVit9vid37LF517MFzrOt3Jm1O66/Wu26+kHbMfpp9p56y9HpE7ZPQBqy2O/sJYVa+3a699uDUisu27/N9v8wL12R2ObXXTJFQCoYvf/4Nu2+pQz7cKr3mCpTjg2qpZlRqw8OYi4x8BNBu3+O79sG39yh6UWL7cbbvlDKya77PEH7rbdT/zA7vrSC/b7/+WfkWBJx3wsc9D2PHMQ10eHXX3jW6l7nX3/u99C1dlkd/+f2+wPPvJnSDyze+74so3A4a+96Z22eu1pNoFt8I3bvmQv0k4d+um1b323jYyMWxmJFES/n0KSJtD3XQASEhOTEIDJ4NIh6B5+G6EGpA7jrqh35f1VBQKowCp/o1xPU4j9ZsRmEsPn6SfQ0+Cm113/Zlt/0XpWS8DOPOtMZ0Bs3vCkDfb22HkXXGRf/+Jn3Kq89Ia32Qc+8GHbt2e3c56/5nNfsY+85y12/4++a2efu95y6UkGhPIfKttpl1xmb7zxndRfxxdWOi2N+HhgywZ7cdMztp4JDqGjDfTtsd1bnqObITvn1efayNBBu+2zf2cRDIA/+ru/tyWrVlpkAHF/znm2pKPNPv/pv7WHmKB3v/f9tg0OI628Fcv4/f/t7+GeDTY6WXC6n4BWymetHh2tHamwHOt7tB/dMlZnLYuX2dqzznGGUUghU1i1Lei5MnKcVe8sZXFIswY4YwDDA+YIEOBi6K1L1l9v73rfR6w8sse6GvE4MOtf+9KnbRPq0pWvu8b27tlmW558EICusVs/+FEWw1Intm9674fs3774T/bE4w/ZxVe91l71movs/rvvtBhS6uzzL7Te8Zwd7NmJ5OG/ABY7euzOHdts42P3W6Spwf7kP/2FhVIdNhZut3e//w/te+mdtvnZR+yZxx6wq95wvWVL8kDQ77pG+/0/+LAtP/kMtyHxzt/7gP3DX/6RDe3e4vyw6dG0jfRstyg+1nfcdBMbEXI3YiPkb7HnntvovCV9+/awHlMYsNgEeCaSLDJ5fuSBcMgSm62i7Wi8tAakQrSHaQ/l/p2Xpopk4CQQ+fh5bGx01JoWtVpX91IHkB/e9nnrxbUTS9bZujNfZVdefbWdc/ar0Hdw4pJ/+wsACSt5NXrV/T/9ocUB/ARcWH7HBhzc4yMDNjjQby1dnU6fQiG0JStXIeVSGDZZ/Hd9dvqrzrUHvpuwJx9+0M599dnWjiGwU8YMYnr9697kAJJBr5NhtWLtKYi6Sbv3nrutKY8Dn10t7WBh5dnWFzZThHe7cZGgB9jSlWtZePhveTuhIMc6uq8c7S42FLEop/YgBoaUf7Z6YLBytyRsZGDM+SDx4mMsjTsVKICuJgd6TKoDEyE3m1QkGZjaQKAS2jvJubPGhnHOcd/c3kk/2AlDHy3EQ/bSri0APGBnXXq5JfGDvgQ4IohMGZpved8H8PcOWRTPRv84X/hAZSjgzSgB9DLcuySQsSDkDqpvSKDr97AwRuyi66637qWL7alNW2yw1G/nnnsuzOMC27zhYduK2nM1zwPyrgChRgygZiTCOExhit25NvrXtfJk69v6vI0iedaddppFcfjLXfYXH/2grTn1DH7r7HwkzOq16yyPC7JvaAIQo7+z25dBXZBxFYGuDpjTAOVWB/SRYXm44xCQ+hlngCpaw0dVET9to9XDpdIo2SMjo7Z89Vq7/Iab7Of3/cCefvRBAFmwR350h6095wLHQdesPdn2If6lK4Fy+yZgzg8NOLGHdeF1kDq1/Pv7+60ZERpPwnHYBkyi52jnZhwOYbzismz5Cus+/Rzb/+z95B3Aku2yh39xPxMasbPPW28Rtg+3b0NvzJdt977d9uVPfJxruEMMfakf7ix2hiWegfhDQ8PW1NrhQNvWuZgdnHbbs3sEjsAc4wqqwCHl3wsCljDcMMzOltv6I62ImM2QUduUYRYTmRxwZTDFw7hqohhnERYAOre8FtoyzuBzlacBRNLPmO3avdOSAFpWvX5U5N47D2CYDAEE2LKFRWcWeILJzsEgZDTWJRqsubPddu3dhc8TdUUGFlOzbed2VKAW6+AZDmXAqrDBog307oW2ZVu0pNv6cNzLuAwEmjCgttjSFcvZv4b79u5hcbI7xbhQIC0FXeJw0+GJKRuF/qKvxsHAHSOQ9+Ztv/O79uDPfmwHtr1kff0H7eG777LWJavQR6+1M19zBeMPOyMy0dRB63iDKCuXnieTJZcdXB3cqNndu5t5/hwWpF5eFdehc8URWRxBkyef48RkGm62yK694a3oSJfYww/+1FmQL2O1bn3yIdu6ZbO9/R232Kmnn45rgsHCfS694nXON6idJu0Zy/cq6zeNHphkdWofW/vSzKoDXRTx2sA2JFnhRBm74LJr7M4NP0eM7bCVWJz7t71snSvOsqa2LgcaEQRdw0465SxbfuG5cMusNZdxWMtRLt0YIyjUyZYiK3cEo0JD6+vtQ9Sz0gFBBMs1yNZoHoNG26osIwcyqTqaQzb9uWfvHQ4Rw1fpnFSgNYXom8TSzaBzJ5sanS+YWXd0StY3wCjwUVIHbgmL4kNsbutgsU457lcPcNUPqQp5OHkCMal7gToKzbQgaci5hcbHRt3W6NIVq+CCGC1wKG0jd3Uvcbte8pGKg2sDJSIfMXqgDDP5XNX9IpsauRIcnQVSjpPCWOWNKZAewlgSSNNwz3q8HKM5YgGiRRjRydavhcQY8tApk87aRZdeaV14Dfaitu3bu9de2PCUDWEs/hhpeACGcOV170C3Z/cPxpTHD6ytVu2YOZ2UfuioBaqXMv/fo4DUK1RbmfxnIpREX2MDoujFF+3AjhfsvPPPsxvf8S7skEEIcos9/fij9tPvfM0ef+QX9qYbbsTYarCJ/l679MprbMmSpdaDziK/WYIdjj24RQIQKYmlr2AKfU1FnNQFhjBAcbd8lh0nrNJliGbjC4BPPvYIE1DnjIdz1l+BqpiyHdt32mosU01KmkJX4c8cxXdaGRqzzoYWN5hnNm8ACDj1YWoKgAEZ1sHuTFZqAqK8UA4Z/NABugI3kh6VZWImcHkJQAKLFoICPhRIInHIDNPHvDWhcwbYzNCuzYF+OBhOcgEoKC7MC47iwFp8Mj4VzyBrt8CiyEvU8SymQJRM3hZhAG0gz9jAoDUgVfIwg+6lyxGXEfuP73/Pdmx9wf7oP3/cKoxD5cqcK9AsCT36e9CbWQQ0CjMJ2JJlK20TbWzZssUuuvxq69uNO4sxnnLqqbbpvu84KbC4eyn6Y4ONS+cmSIedDNu5a68LdFHwz+DgsLW1dNgg+jSaDQE9GXvoO9+y0884y81nGtC+6c1vt17m9POf+K+24d4f2KVsdrSw7TyFVJP/WC5An4u6FTg/HudNZZZmDoGx9pip1EtVsIC2IzWZrZ2LHKi2b33ZHvvx9+y5DRtsDGLWNbba4qWrrBGRARsg2IIgjMmMXXjlGx3wvvH1r9rWHbsAVZN1LV1pg6MT9oVP/pV98ytfcDqjAOo8DPX4X4m6EbEVWRVN4P5SlBTXp7z6Yisc6LH7f4h7ivaWrFyDKOu3CA7sBtptXnoSC+cle/C++5zo7sYACcKR77jjO/bt275ojzzwgNsnj+JHhMWzKNgfp68pXFfarHDbeYhSeR+km8axyOvYkXIBMJBakT94/dyvffEyJES97dy+FaMvjWsMXRWf7wsbNzB+cd2IjYwRzMICc6GM9Y2AXZsdcDPEqKLDxphkGWRjcKAo3+Na2b0Kgoft2V8+bHtfeNnOwrPR3dJlQ3t6bOtTj1sJtaiOV9CXdy2HpkQr5UrWiGspwHZxFEuawaKO4MccHHFqjDW02yYW9YsvbcUzuAx/6yno0FO46R4G5AFbu+5cV8/oOIYk7dY3oyPjGajDi6Botb179znagzanqx6kfYn6z332H+wgXF6RakHGoc0CLXoxCW26yJcuyZuCzvL5iot6APXPHq6O9reGk6ogfQUi+rnKXKVK9HSIiYkxBt2KKtlIZM+wlZIxO+eCy2zjwz+zh773LTjZy3YyjuD9e3ZhnUIACPja37rJ9vUetPMufa09/fRTtv3Fzfa5T/+DnfnqC12QyHP34i+EwNe/+0Ooa91uJSsgQtwpDXdTaJg4qkLsyoBG4W1XvuFGe/lRdFFE65pLXm8r155u+3p6AGnYRhHrb3vvh+3Ln/2k3fvFf7YXn99oKxYts120e0D+WUB47ZtvRjy32b79+wF5iw1jBGoRlNCxy9KdcJCH4YghRGEIGuQBkXRjWbFySxWZlKHRcUlJvAcnw9k7XN1f+czfWxec6+CBA9b/3CPkxahpQu2j7y2IdDE+5D90QfSzoCbGiBirT4ApOB/jDLEopwDPos4ldvlbbrWf3/lN+8LH/9QuueF3MN6m7JkH7yZf0W7+EFZ6hZgFGLtAtQNR+1d/+of2+t/5fTYGAFgGkSz7iQWy5pQz7bI3vM1+ccdX7V8/+dd2PnVNFoL2ouZnaLctPeMCu+raG61nfy8WeCvipWx7e/bj113E4hpnngep4wz7zpc/7RiGJNRZ515gv1x7hu2Gnn/73z9mF1/xesIHSvYIdgmDsEuvu9kWL1lmL23bZdH6ZhdNJkM7Cj1n8OXz07msUWOafSDbGv7qpLMus46lJyMi2W+mjKuIyfGKK8GrWjqTtsSkZEufVOBEM/rX4mUrrABX2L3hCdv1/LM2tHe3Na85w66/5YO2aOlq3BDs/bLaz7vkahuZytuBrS/Zvs3PWV9fn9XD9S58/Vtt/RVvsIGhcWcJDrCbUkTxXgYA2jqWApAMY8c5TI/cnjGCehTdLk+bF139Rmtpwyjo67cMKkMMbl/H6l/M7scQfe3b+LTt2/gs4nrCVuGbvOE9H7AG9EHtgAweOAhAx2zNq87Dw9DODlTGiesibpIyC9MZjAAyqp0SN+6Cbdu/15atPdXOxOWzC/9pDB316qvfZFu2brPBrRutf/d2m2KiBRgFxyhWdd2FryUGtmTjw7SHa2vRSWfaypNPs5H+/Y5TB6Drc3gcTjn9bCd2ZTh2I43igL+fML/tm5+13hefs6ZlJ9kbfvtWW7XmVLoj7hWxGCpSD3TMYYy2rT4dTtlt27Zvx0F/Cv18Fdb9kK2lv6m2xba/f9D2wOEHXn7RuZlec9Ub7fLXXY/hxbzyVkGRBboB9e2k0862NXDXAcom4PyKz5B3A5Q53Vu66GrqTBNXenDPTtu78RnbhyHItqBdds0Ndt7FV/GMOA0WZ0VqBx4MqR4zAPUYopDm0FZ9Jm9KNMQss6Hz5MM/ZXUjbSoyuFLdlWve/d9s3frrbIAJk5/TWWHTINUil20ecoRW7GYYy1N75hXcH0lcH3EqrlDZOCxeolHhaWF0LsVjas9XwQtNKM4yBOqSdc4q1Z6xomXa2cGQfjvMZBRwFbW0tTLAQVw7w+wFN9KXGOURY5E6OFfQhod6UCcULypxdhCQkG6EkwGGOL5biZUIDE9hfQXAlmbrtIQeKHdmZ9diCFewnRC2c9ESa0zg3hpiIgDT6MgY/gWsegCZI+agjFWvzTNcsRaD2DrLYk0z5jRBz2XcPpDFwoAlhR5XzwQNjfShCmAJU9NiXGkTfbvhRKPWsvIsGyasMFYizoAxDWRwy8CRmut5OxXrPQuom+hDGv1ZkWBFpIV0+BB0EQfVBMtd19rWToQWnH9o0HG45tY2aEfkloJFUFcEDG1zpomE0jZoJNXmjD8F5SjaLItrbEoMAxGvgJxWAkgUKjiBaiD1g0uni2tBKQA7LtUEkZ1nSzaJSwtBxZwTfgk3Fy28oJIiXp4x+jdq3cQPSCUsIEHHpihnUbSGepgz8wCT0Nh8bIlXClfuJXDO+iAHkR2EQ6JIsZHz2U/8CZKyF+agj+ge8fARr7MX11hAJ61gLcvaLQOCPHGMUcCWIhA2jy6krVNFP0mvG0bHGWerM8eEVMIYCxA9j8NYe/D16FglJmd4nOASRIXqBAvWe/AgHChmHYuW2gS+R/lZgwGinTBQFPCrxSLuV1dPFBXGUpHglTwcII5rZoIJlS83SH0K6QuzHavtuTBiTyFxkxg3GkmqqQ31gbbpWwFVIgjAE7i7yohJ8O1AIbKIc8v1orQS50l0zrrmRgygHAYBIGDckipjtBuGq4UR2yG4TQGutHPPPmthD74NSbK3D70NejSzoOURCMOVA9wr1jINCDQ2LbUSfR7DbTUxOW5D6MQyUqV2xOHWQSRWH+rWMOkCm2x17ecrwiyAr1kqQ4z6e3p6bdWqVRYDpH0DQw50U1jVcillkTRRwgtjqBV6C0E2REHWt9QQJEcO+ixe1mUBgDyA0UbQpOOCettBuvUUC14gVdijDjEiqS31LZ1sUC22EHSZgHmNizEE8A/DKLQdqoD3Ohan3mzQIY6qefDOvsR2j+b9M0fcAyYmUx95UAWaJlXFrHGlcCzPReJCyABaDFePfJ1ZiDUOx9RrEnKYpyGQJlUTokHIrRRD58sC1jDGhNw/kzjI3SsdiDqlyfWRAHQKBsnD7l2IGxwlyJZmLCHfnl6ZgNgYJgF2o7JsHfKQ+uHc+FBzcBH1L8pEqx5FAOm1CgX26tUQuXJG0YvAB8avIqKoAwJKHMmHp/hJ1hx14hjn5z6DKTpAAppzpJALaQg3U1HPqV+LKMG4GjDyBtlsiKKjp/E7CqRaBArIKDGuMbwT7V1L4AgFxO8gH4gleAW6lNnxEsjC1DFAoLNcZyE8AwkWfATa6bNFOaSP+64HYy2jBJc5xzFEklqwTH5OOrLywf3CMIkJjLQRxukWDCDS2ONIr3H6Ki+DPAwCo4w3hABkF2Opg8ZJ5rhsvft7XJ4kRqQWv1QKBRKN47sV99XmhGgpQ1MeDhmdGVCuhSaJybAZD29roIvKKMzC1BRlpUh/Bet4LigfmFVs0X8J/sOJ+yNyUg+ozE8Vq9JNZP1KVxNQi3TMVUynFb6XYYK0a6HXOxSsq1c9JOIlzjVYAV3+SOWNsvJVr3vFQ6BmsGV2W5paUfyD3JfhiApR4/PROcRRJIJxQShZCId8EYNEHDvCpGbhfoWCdojYsoWLKoBYiFKMo9QDeQO0bhXALBeX3D85wA/9mexGAqXZMGBS5ZutZ8LmO3ySpqmjsRXdlX6IW8QAu0AugIiTVILehMi1FSVQZTw7DveZslKMoGm4U4x89ag9EyXAAl2STLQCmqUfN2OoTOR4pQZPiMS7OL84tQw6GXNiFgkWw5h8sdQbgUu5jQLySOeTWA6y29Te3e2MWryl+EkBiTiyvAy0J0mlOVQUk+ZEgNf683zWOdMrMs2t+IjJKP00Qv9UrwKtm/Ga5NOaT6QNfXZ6JqDXYi3hXiuT3tTYDiDZNZOhqy5DGzER7TYpZFBxvR4ceVY9BM4Zq99PnX0+LEhV2DuEUG+aFCwbBhi6k3tGhBP3CsGC1Dk5+YU8gQNUujTtrrgtRojZ0IRFy4ouAGZtKwZRggpZypE3RfDwKK9gNLc2Oy4k0MgogW0CLK16vSflTYhAmyHmNJAhBCzPayJxrFKeRYJwaf5JP1a8Db1gVgRI/J2ItwIBJZqcMMAtcq2gCL04J2sxCfeFvbj+q9jcQ2OegpOHCa7BzQgH4q0AxlAG8M6HylgCYdqBBgJpjEWoyYyxpx9tIrSO2NGKE/EscseZPQqLy+QwQErhPK6aZgCoGF3qgNPpE936gFxBiw/QpgvopwAgAV2kD2o+JHECcO4wSrcWoFSIJLbABJJNAdgiwtDIkDN4chkv/leqiQ5xaB0Kv4sT8phD9IsJ6SNskoahKGxFQKaPE9gbel0lDEdUfKjoIfdihbbl244RlTZKkDrdpF6MMDnoaEb9CcegjWtKyJ1zVBmgzxDnPHW3hwGpB0y/gDcUxgv4tCpEY612x/YhjiLXM1jbzSjtWrkCsGJM5SNTGa3eCdxFWrGt7AlLpMmFJcOpBUvbWY/4OVMNbeBEnCXvAC+RHY3AMeFwetdIkfmyfONwF1FAW3/aVYmyDTk6rBf0tGg8hV6cXO9SqbNy7bjAYdIESIk7+fXCGEiykrWIxNUlIfjr/cfJWaQM3jsHcKsst2Gi3TNw0gpcfpKJSzJB2k3J4rAmJ143uEsZ/Y02qJ7m8Bmi5uSZ6OWI/DGMvSJp4kSiiV7haGVvfBI3VxZRLVeOgjEEdL3xGaa/MClADw1YrCnUgBAcKs8bsi76X/OAGpKEJvBSt3hDgDigLWACu2MwiSLjQq1EDPNipHqJ4aetzSz6PIPj3S5FKiEBobfCKWPor7IxpuhTgvYi0LSXEMTO9nZnRMno0+5dFLGut1v1ZmsG910qiSrA4gnyxq+4tiSWNjkE0Ahg19jcuuCZd6j96Rs/8ZAzIGW16YAbKrtWiJzO0leEbnfP0HTW4dwy7ko7crwiQsN67aOxpR2RKjGNlcZEaQXqORduQGKK2jrMkacA4GTtCyASXwKBLNUCuxPaOouxqpNwLOmTRSLVtXolEhswWrIsCCnwqSY4Gn1MT+kFNPRM9rBFDOlVCvRV36NMZggwFdkqLBClo3a0cKSDJurEpQEsRo8mPQeg46pAY+SnK180iYsp7yiGi3R2LRoKOZ1L72tNweFUh8Yqa9WNHRCo3+KUGV4O7OjstN6+7UwWoMB1J25UCmNFQz+npkC3JDr9lHRywJFnsevlO4nqIiCAivQdQwZOmkN0is4p1BdxVBlSCgKXoSjuLRqneLEuz8JRQEg9hqJigN28AArZHDLw4viD3ShZ7NpNU/S+Fpn0cqkSEu16xcYPApIOL11UwNe4BGKoTV1xYgLwNHCdhxsXiUuVruskKxQRHcW0pB/L5y3izmBLVzq0fLwrd6trARhc0ku4CBcKRlBhrXztSyuDJkqHu6pOIP2fPgLk1cTof1GmLcuS9E5qzLm6HQujU4hkQKEOa/VKZNMI+Z0n2hFOFeq1EnVR0fDSmXKoAUFt0dGXUoWVS6h9jphN9Uu+OxkAAoTeUNWK1XiqcpR34zVgx0Td6pUuLCK5NPL5BqCKxDUpTEgAcS2O44igvxIXHEpxio18WNTjcqhtwCVShMUVJVYp6/6RWeqPRLZ0rYgWaYx31ccHnDGkKcnjEcjjepI41/av3qIMIAVypEv0il14ZzbEWLRwAX2Dm+aZG/6hrKplXEkYfujkOgI4yrXxEcB40kLI4s0PsL0Zq5dawERXdXO6Tv1wNc7ee0feiMXZHWMCgPofLChkT8xCcyVVzrXBWOEjao3/GBfcmtFTD4Cm7+T00hmL1CzlE0PXmKWzCqzT+FI1OsgqfGn+yvTf2RSOKdCQYnLZsQAx0t6UTUSXflOdHa+Kaj1uRDw//CF6ewd5dV09eV3wkpTsf8LQu64WqZ4qHtJcWa+ELrWA1CdXQtW6Abmz35CI49KVV09mHyo595gvzc/j8OjfzDmrHG7hah9nP3TdV5K3FTT9MDTnXsu6tpuO9od2e7r8kS6mx+EADyIAzHTadCOk+bQlzdGOPzNp6vNMKyovQAmgM4eX6t97YxW9q4crr3mqqch/dqSz+kEZ4WJ2m6pHDx0nVQaFTKDugv4qwzxStfM+U5VBVqAHNDXM4TrAteuAfz89LAc2ZZs+VIk/SDribt3D2QRyuWYeuhz649U8z4PpHL+5Fw6aDL0WV7Mo4d9MgxVauDT/geaplj4z8+RRtvZ+Ju/sVJWfVUlthUe+RmLKADy0PuwMVSpOJY8/DN+x7iPXdrinEr4SVDOd9Abt1ofru9eBmueHVFXTRckj/9YVmSmnYrUQ9qrxMx9S6SsiQVxRFPLcOd6QPcDOocs8tPQJNBuks+l9KPjcsvCLquVDs9Q8PfqluLL6qnZnt+1A6n0jXgBj6qv63NErnZ3D6WOuozMNeFcenMShZ554ZWeTT/mUMpM6DcSZJFfQpR9SmV9+dr9eKXcihy/FZo95Nk0PfTaTMpekc1jrTMbqTM3KL2m5UDFMzW6B4DVxKqdT79QcfYfDykpxol4iX5ar/q94Cz9q+eicWqaBVh0ap9ljEshk3Exn5KqGDFXO6q124Dx72Xtko8KaEnM68Jt9q3FP6/RzqMiDmsEf7npWoWr+WmrWXDva19wrN7T37I1q0eM8SYrrIyC+beQVV1+duJeY9x46Jyzbjws9aofv1zFrKLWDI/OsZ3RG7pVakPp1OOj5ZSnn4bO2NNcOoJ717Zd7pZ3lpRGb8MSmP3oRzKcZF7pxP04im5/tMGcP36J19VctMJsd6Zla1fwt7NCWsTYRcBDSlAxh1ekdVXGPjwygaoqF5IUc6qIHHr+014j76w9M3LCmcXFSvyteFinP1cx+Ne7sKQJebv+6NgMkU0VOVZmvfG3e39RrEcC3tmdo4K545AG3ml6l8UyuI9CEsg6QZHZnR2gP3DNTpbaVNj+TOULt04/kAg2yyRDih0OLxvAUuGrFSfG36PMqdfjyGuN88maBi8EFDvi9Bq1et9UH/4o0Bqqv3+kzLxH8etoi1ecBda0vYSTZ5xUNFP3jXjKjtL43JWe19rIdmXDm4dLjh++Tn/Qgvb2pjQGoNFuyqflX0CE+OkNvb+BiHA6gEF+BIu5zOewI+mGUop/2+BXdph1A+UTlexZt9XU/fQVFGwfaFQw4X7Pa0OHNp3etv3OZ1MyTY7kK0b8I21T6/lSWXa8Evt6MAsTZ9Ajr0376vlCe+M3cMDtGBMAu9PBdTd4wZgbjs1gRo06O5v4DNsquiD5lU4YYBdJSADMzyDeO2Cbdu+15B2R99WSwh+3SRsK8hF6AKMexNxmQxQHX6633bYCFr+SFjvn/l3JiCwEYjv7p0JJ2y5rJ11nH+CCOcTYEokx8jm3ovLaZYQIVdsYq7LgFmR+9/TA1gtglLQp9K6VhPkjDa9zUq/lzh5jBdEtekgdS+dz91vz0Yztrk0KbduNEs2V4VTvsxDJ1aaPGEu2adUsQlFDCTyUNdSGHuuat2GrpadkvonmEU4DtFLGS2vPX4hC31ArV5wf1Fbw6omq0mvX5xRb6o0ghXTexnTqqD9uy/eY4pwhElQqm1aGIJ+1oKTxwPmXAZfoN/6ORs9Y5PFrrqnYm9Ugv8qWRSlHoJRAqvleHtq917+qA/hnySOlLat8fzpplx7CBcL5sdVfQzSgAnqsYihsuFKRuT0tBCnS0gZDHcRiZHKRR7dytW39tZfMzT7mPMOjDU7WD1ACO/aB2Ojn7cMOpJnENqJLsmafVGfbS3Z6ZKEsUkLvmFVp1Ut8RnZokQJbrKPvReYly/VSd8vtuMvaP3aE0CK/6X9GH6FMD0plL94CtZcQ5C99T4MmqPVJlcgjhUqjWl97Y4tYRcV9B5KFuJeohc/WPd3b3SqseXjP+3fGdNaeKzmJBsFet+EFASgOI/P8LD1EXz5O6kykAAAAASUVORK5CYII=;" vertex="1" parent="1">
          <mxGeometry x="47" y="360" width="169" height="54" as="geometry" />
        </mxCell>
        <mxCell id="X91n1EuSpCg4O8vg80DY-7" value="" style="html=1;shadow=0;dashed=0;align=center;verticalAlign=middle;shape=mxgraph.arrows2.arrow;dy=0.6;dx=40;direction=south;notch=0;strokeWidth=2;" vertex="1" parent="1">
          <mxGeometry x="77" y="235" width="20" height="125" as="geometry" />
        </mxCell>
        <mxCell id="X91n1EuSpCg4O8vg80DY-8" value="" style="html=1;shadow=0;dashed=0;align=center;verticalAlign=middle;shape=mxgraph.arrows2.arrow;dy=0.6;dx=40;direction=north;notch=0;strokeWidth=2;" vertex="1" parent="1">
          <mxGeometry x="167" y="235" width="20" height="125" as="geometry" />
        </mxCell>
        <mxCell id="X91n1EuSpCg4O8vg80DY-9" value="" style="endArrow=none;html=1;rounded=0;" edge="1" parent="1">
          <mxGeometry width="50" height="50" relative="1" as="geometry">
            <mxPoint x="247" y="500" as="sourcePoint" />
            <mxPoint x="247" y="80" as="targetPoint" />
          </mxGeometry>
        </mxCell>
        <mxCell id="X91n1EuSpCg4O8vg80DY-10" value="本地调用" style="text;html=1;strokeColor=none;fillColor=none;align=center;verticalAlign=middle;whiteSpace=wrap;rounded=0;fontSize=24;fontFamily=Source Han Sans SC;fontStyle=1" vertex="1" parent="1">
          <mxGeometry x="47" y="90" width="170" height="51" as="geometry" />
        </mxCell>
        <mxCell id="X91n1EuSpCg4O8vg80DY-11" value="远程调用" style="text;html=1;strokeColor=none;fillColor=none;align=center;verticalAlign=middle;whiteSpace=wrap;rounded=0;fontSize=24;fontFamily=Source Han Sans SC;fontStyle=1" vertex="1" parent="1">
          <mxGeometry x="464.65" y="90" width="170" height="51" as="geometry" />
        </mxCell>
        <mxCell id="X91n1EuSpCg4O8vg80DY-12" value="1" style="text;html=1;strokeColor=none;fillColor=none;align=center;verticalAlign=middle;whiteSpace=wrap;rounded=0;fontFamily=JetBrains Mono SemiBold;fontSize=20;" vertex="1" parent="1">
          <mxGeometry x="37" y="250" width="60" height="30" as="geometry" />
        </mxCell>
        <mxCell id="X91n1EuSpCg4O8vg80DY-13" value="2" style="text;html=1;strokeColor=none;fillColor=none;align=center;verticalAlign=middle;whiteSpace=wrap;rounded=0;fontFamily=JetBrains Mono SemiBold;fontSize=20;" vertex="1" parent="1">
          <mxGeometry x="167" y="320" width="60" height="30" as="geometry" />
        </mxCell>
      </root>
    </mxGraphModel>
  </diagram>
  <diagram id="8Azx5eCZ8LLZ38s_RTSp" name="复杂业务软件开发的生命周期">
    <mxGraphModel dx="1194" dy="824" grid="1" gridSize="10" guides="1" tooltips="1" connect="1" arrows="1" fold="1" page="1" pageScale="1" pageWidth="850" pageHeight="1100" math="0" shadow="0">
      <root>
        <mxCell id="0" />
        <mxCell id="1" parent="0" />
        <mxCell id="Tcp24Y1q4cMggDbtx_xr-3" value="" style="edgeStyle=orthogonalEdgeStyle;rounded=0;orthogonalLoop=1;jettySize=auto;html=1;fontSize=15;shape=flexArrow;fillColor=#B3B3B3;" edge="1" parent="1" source="Tcp24Y1q4cMggDbtx_xr-1" target="Tcp24Y1q4cMggDbtx_xr-2">
          <mxGeometry relative="1" as="geometry" />
        </mxCell>
        <mxCell id="Tcp24Y1q4cMggDbtx_xr-1" value="业务目标&lt;div style=&quot;font-size: 15px;&quot;&gt;业务价值&lt;/div&gt;&lt;div style=&quot;font-size: 15px;&quot;&gt;利益相关者&lt;/div&gt;" style="rounded=0;whiteSpace=wrap;html=1;fontSize=15;fillColor=#dae8fc;strokeColor=#6c8ebf;" vertex="1" parent="1">
          <mxGeometry x="80" y="280" width="120" height="60" as="geometry" />
        </mxCell>
        <mxCell id="Tcp24Y1q4cMggDbtx_xr-5" value="" style="edgeStyle=orthogonalEdgeStyle;rounded=0;orthogonalLoop=1;jettySize=auto;html=1;fontSize=15;shape=flexArrow;fillColor=#B3B3B3;" edge="1" parent="1" source="Tcp24Y1q4cMggDbtx_xr-2" target="Tcp24Y1q4cMggDbtx_xr-4">
          <mxGeometry relative="1" as="geometry" />
        </mxCell>
        <mxCell id="Tcp24Y1q4cMggDbtx_xr-2" value="核心功能列表" style="whiteSpace=wrap;html=1;rounded=0;fontSize=15;fillColor=#d5e8d4;strokeColor=#82b366;" vertex="1" parent="1">
          <mxGeometry x="260" y="280" width="120" height="60" as="geometry" />
        </mxCell>
        <mxCell id="Tcp24Y1q4cMggDbtx_xr-7" value="" style="edgeStyle=orthogonalEdgeStyle;rounded=0;orthogonalLoop=1;jettySize=auto;html=1;fontSize=15;shape=flexArrow;fillColor=#B3B3B3;" edge="1" parent="1" source="Tcp24Y1q4cMggDbtx_xr-4" target="Tcp24Y1q4cMggDbtx_xr-6">
          <mxGeometry relative="1" as="geometry" />
        </mxCell>
        <mxCell id="Tcp24Y1q4cMggDbtx_xr-4" value="业务流程&lt;div style=&quot;font-size: 15px;&quot;&gt;业务规则&lt;/div&gt;&lt;div style=&quot;font-size: 15px;&quot;&gt;业务对象&lt;/div&gt;" style="whiteSpace=wrap;html=1;rounded=0;fontSize=15;fillColor=#ffe6cc;strokeColor=#d79b00;" vertex="1" parent="1">
          <mxGeometry x="440" y="280" width="120" height="60" as="geometry" />
        </mxCell>
        <mxCell id="Tcp24Y1q4cMggDbtx_xr-9" value="" style="edgeStyle=orthogonalEdgeStyle;rounded=0;orthogonalLoop=1;jettySize=auto;html=1;fontSize=15;shape=flexArrow;fillColor=#B3B3B3;" edge="1" parent="1" source="Tcp24Y1q4cMggDbtx_xr-6" target="Tcp24Y1q4cMggDbtx_xr-8">
          <mxGeometry relative="1" as="geometry" />
        </mxCell>
        <mxCell id="Tcp24Y1q4cMggDbtx_xr-14" style="edgeStyle=orthogonalEdgeStyle;rounded=0;orthogonalLoop=1;jettySize=auto;html=1;entryX=0.5;entryY=1;entryDx=0;entryDy=0;curved=1;exitX=0.5;exitY=1;exitDx=0;exitDy=0;fontSize=15;" edge="1" parent="1" source="Tcp24Y1q4cMggDbtx_xr-6" target="Tcp24Y1q4cMggDbtx_xr-4">
          <mxGeometry relative="1" as="geometry" />
        </mxCell>
        <mxCell id="Tcp24Y1q4cMggDbtx_xr-16" value="反向修正" style="edgeLabel;html=1;align=center;verticalAlign=middle;resizable=0;points=[];fontSize=15;" vertex="1" connectable="0" parent="Tcp24Y1q4cMggDbtx_xr-14">
          <mxGeometry x="-0.29" y="-1" relative="1" as="geometry">
            <mxPoint as="offset" />
          </mxGeometry>
        </mxCell>
        <mxCell id="Tcp24Y1q4cMggDbtx_xr-6" value="领悟建模" style="whiteSpace=wrap;html=1;rounded=0;fontSize=15;fillColor=#fff2cc;strokeColor=#d6b656;" vertex="1" parent="1">
          <mxGeometry x="620" y="280" width="120" height="60" as="geometry" />
        </mxCell>
        <mxCell id="Tcp24Y1q4cMggDbtx_xr-11" value="" style="edgeStyle=orthogonalEdgeStyle;rounded=0;orthogonalLoop=1;jettySize=auto;html=1;fontSize=15;shape=flexArrow;fillColor=#B3B3B3;" edge="1" parent="1" source="Tcp24Y1q4cMggDbtx_xr-8" target="Tcp24Y1q4cMggDbtx_xr-10">
          <mxGeometry relative="1" as="geometry" />
        </mxCell>
        <mxCell id="Tcp24Y1q4cMggDbtx_xr-15" style="edgeStyle=orthogonalEdgeStyle;rounded=0;orthogonalLoop=1;jettySize=auto;html=1;exitX=0.5;exitY=1;exitDx=0;exitDy=0;entryX=0.5;entryY=1;entryDx=0;entryDy=0;curved=1;fontSize=15;" edge="1" parent="1" source="Tcp24Y1q4cMggDbtx_xr-8" target="Tcp24Y1q4cMggDbtx_xr-4">
          <mxGeometry relative="1" as="geometry">
            <Array as="points">
              <mxPoint x="860" y="380" />
              <mxPoint x="500" y="380" />
            </Array>
          </mxGeometry>
        </mxCell>
        <mxCell id="Tcp24Y1q4cMggDbtx_xr-17" value="反向修正" style="edgeLabel;html=1;align=center;verticalAlign=middle;resizable=0;points=[];fontSize=15;" vertex="1" connectable="0" parent="Tcp24Y1q4cMggDbtx_xr-15">
          <mxGeometry x="-0.015" y="1" relative="1" as="geometry">
            <mxPoint as="offset" />
          </mxGeometry>
        </mxCell>
        <mxCell id="Tcp24Y1q4cMggDbtx_xr-8" value="技术架构&lt;div style=&quot;font-size: 15px;&quot;&gt;微服务&lt;/div&gt;&lt;div style=&quot;font-size: 15px;&quot;&gt;……&lt;/div&gt;" style="whiteSpace=wrap;html=1;rounded=0;fontSize=15;fillColor=#f8cecc;strokeColor=#b85450;" vertex="1" parent="1">
          <mxGeometry x="800" y="280" width="120" height="60" as="geometry" />
        </mxCell>
        <mxCell id="Tcp24Y1q4cMggDbtx_xr-10" value="系统流程&lt;div style=&quot;font-size: 15px;&quot;&gt;系统接口&lt;/div&gt;&lt;div style=&quot;font-size: 15px;&quot;&gt;……&lt;/div&gt;" style="whiteSpace=wrap;html=1;rounded=0;fontSize=15;fillColor=#e1d5e7;strokeColor=#9673a6;" vertex="1" parent="1">
          <mxGeometry x="980" y="280" width="120" height="60" as="geometry" />
        </mxCell>
        <mxCell id="Tcp24Y1q4cMggDbtx_xr-12" value="" style="endArrow=none;dashed=1;html=1;rounded=0;strokeWidth=2;" edge="1" parent="1">
          <mxGeometry width="50" height="50" relative="1" as="geometry">
            <mxPoint x="590" y="400" as="sourcePoint" />
            <mxPoint x="590" y="220" as="targetPoint" />
          </mxGeometry>
        </mxCell>
        <mxCell id="Tcp24Y1q4cMggDbtx_xr-13" value="" style="endArrow=none;dashed=1;html=1;rounded=0;strokeWidth=2;" edge="1" parent="1">
          <mxGeometry width="50" height="50" relative="1" as="geometry">
            <mxPoint x="770" y="400" as="sourcePoint" />
            <mxPoint x="770" y="220" as="targetPoint" />
          </mxGeometry>
        </mxCell>
        <mxCell id="Tcp24Y1q4cMggDbtx_xr-18" value="业务&lt;div style=&quot;font-size: 16px;&quot;&gt;（现实世界）&lt;/div&gt;" style="text;html=1;align=center;verticalAlign=middle;whiteSpace=wrap;rounded=0;fontSize=16;" vertex="1" parent="1">
          <mxGeometry x="265" y="220" width="110" height="30" as="geometry" />
        </mxCell>
        <mxCell id="Tcp24Y1q4cMggDbtx_xr-19" value="&lt;div style=&quot;font-size: 16px;&quot;&gt;技术&lt;/div&gt;&lt;div style=&quot;font-size: 16px;&quot;&gt;（计算机世界）&lt;/div&gt;" style="text;html=1;align=center;verticalAlign=middle;whiteSpace=wrap;rounded=0;fontSize=16;" vertex="1" parent="1">
          <mxGeometry x="900" y="220" width="110" height="30" as="geometry" />
        </mxCell>
        <mxCell id="Tcp24Y1q4cMggDbtx_xr-20" value="复杂业务软件开发的生命周期" style="text;html=1;align=center;verticalAlign=middle;whiteSpace=wrap;rounded=0;fontSize=20;" vertex="1" parent="1">
          <mxGeometry x="440" y="150" width="290" height="60" as="geometry" />
        </mxCell>
        <mxCell id="Tcp24Y1q4cMggDbtx_xr-21" value="https://www.diguage.com" style="text;html=1;align=center;verticalAlign=middle;whiteSpace=wrap;rounded=0;fontFamily=JetBrains Mono;fontSize=16;" vertex="1" parent="1">
          <mxGeometry x="460" y="430" width="250" height="30" as="geometry" />
        </mxCell>
      </root>
    </mxGraphModel>
  </diagram>
</mxfile>
